# Made in Blockbench 5.1.6
mtllib indicator_1.mtl

o cube
v 0.021875 -0.240187 -0.136062
v 0.021875 -0.240187 -0.147000
v 0.021875 -0.251125 -0.136062
v 0.021875 -0.251125 -0.147000
v 0.000000 -0.240187 -0.147000
v 0.000000 -0.240187 -0.136062
v 0.000000 -0.251125 -0.147000
v 0.000000 -0.251125 -0.136062
vt 0.03125 0.953125
vt 0.0625 0.953125
vt 0.0625 0.9375
vt 0.03125 0.9375
vt 0.046875 0.953125
vt 0.0625 0.953125
vt 0.0625 0.9375
vt 0.046875 0.9375
vt 0 0.953125
vt 0.03125 0.953125
vt 0.03125 0.9375
vt 0 0.9375
vt 0 0.953125
vt 0.015625 0.953125
vt 0.015625 0.9375
vt 0 0.9375
vt 0 1
vt 0.03125 1
vt 0.03125 0.984375
vt 0 0.984375
vt 0 0.953125
vt 0.03125 0.953125
vt 0.03125 0.9375
vt 0 0.9375
vn 0 0 -1
vn 1 0 0
vn 0 0 1
vn -1 0 0
vn 0 1 0
vn 0 -1 0
usemtl m_ba4ec1ab-56cf-e947-093a-c95eefdbcb3b
f 4/4/1 7/3/1 5/2/1 2/1/1
f 3/8/2 4/7/2 2/6/2 1/5/2
f 8/12/3 3/11/3 1/10/3 6/9/3
f 7/16/4 8/15/4 6/14/4 5/13/4
f 6/20/5 1/19/5 2/18/5 5/17/5
f 7/24/6 4/23/6 3/22/6 8/21/6
o cube
v 0.032812 -0.251125 -0.136062
v 0.032812 -0.251125 -0.147000
v 0.032812 -0.273000 -0.136062
v 0.032812 -0.273000 -0.147000
v 0.021875 -0.251125 -0.147000
v 0.021875 -0.251125 -0.136062
v 0.021875 -0.273000 -0.147000
v 0.021875 -0.273000 -0.136062
vt 0.046875 0.96875
vt 0.0625 0.96875
vt 0.0625 0.9375
vt 0.046875 0.9375
vt 0.046875 0.96875
vt 0.0625 0.96875
vt 0.0625 0.9375
vt 0.046875 0.9375
vt 0 0.96875
vt 0.015625 0.96875
vt 0.015625 0.9375
vt 0 0.9375
vt 0 0.96875
vt 0.015625 0.96875
vt 0.015625 0.9375
vt 0 0.9375
vt 0 1
vt 0.015625 1
vt 0.015625 0.984375
vt 0 0.984375
vt 0 0.953125
vt 0.015625 0.953125
vt 0.015625 0.9375
vt 0 0.9375
vn 0 0 -1
vn 1 0 0
vn 0 0 1
vn -1 0 0
vn 0 1 0
vn 0 -1 0
usemtl m_ba4ec1ab-56cf-e947-093a-c95eefdbcb3b
f 12/28/7 15/27/7 13/26/7 10/25/7
f 11/32/8 12/31/8 10/30/8 9/29/8
f 16/36/9 11/35/9 9/34/9 14/33/9
f 15/40/10 16/39/10 14/38/10 13/37/10
f 14/44/11 9/43/11 10/42/11 13/41/11
f 15/48/12 12/47/12 11/46/12 16/45/12
o cube
v 0.000000 -0.251125 -0.136062
v 0.000000 -0.251125 -0.147000
v 0.000000 -0.273000 -0.136062
v 0.000000 -0.273000 -0.147000
v -0.010937 -0.251125 -0.147000
v -0.010937 -0.251125 -0.136062
v -0.010937 -0.273000 -0.147000
v -0.010937 -0.273000 -0.136062
vt 0.046875 0.96875
vt 0.0625 0.96875
vt 0.0625 0.9375
vt 0.046875 0.9375
vt 0.046875 0.96875
vt 0.0625 0.96875
vt 0.0625 0.9375
vt 0.046875 0.9375
vt 0 0.96875
vt 0.015625 0.96875
vt 0.015625 0.9375
vt 0 0.9375
vt 0 0.96875
vt 0.015625 0.96875
vt 0.015625 0.9375
vt 0 0.9375
vt 0 1
vt 0.015625 1
vt 0.015625 0.984375
vt 0 0.984375
vt 0 0.953125
vt 0.015625 0.953125
vt 0.015625 0.9375
vt 0 0.9375
vn 0 0 -1
vn 1 0 0
vn 0 0 1
vn -1 0 0
vn 0 1 0
vn 0 -1 0
usemtl m_ba4ec1ab-56cf-e947-093a-c95eefdbcb3b
f 20/52/13 23/51/13 21/50/13 18/49/13
f 19/56/14 20/55/14 18/54/14 17/53/14
f 24/60/15 19/59/15 17/58/15 22/57/15
f 23/64/16 24/63/16 22/62/16 21/61/16
f 22/68/17 17/67/17 18/66/17 21/65/17
f 23/72/18 20/71/18 19/70/18 24/69/18
o cube
v -0.021875 -0.196437 -0.136062
v -0.021875 -0.196437 -0.147000
v -0.021875 -0.207375 -0.136062
v -0.021875 -0.207375 -0.147000
v -0.043750 -0.196437 -0.147000
v -0.043750 -0.196437 -0.136062
v -0.043750 -0.207375 -0.147000
v -0.043750 -0.207375 -0.136062
vt 0.03125 0.953125
vt 0.0625 0.953125
vt 0.0625 0.9375
vt 0.03125 0.9375
vt 0.046875 0.953125
vt 0.0625 0.953125
vt 0.0625 0.9375
vt 0.046875 0.9375
vt 0 0.953125
vt 0.03125 0.953125
vt 0.03125 0.9375
vt 0 0.9375
vt 0 0.953125
vt 0.015625 0.953125
vt 0.015625 0.9375
vt 0 0.9375
vt 0 1
vt 0.03125 1
vt 0.03125 0.984375
vt 0 0.984375
vt 0 0.953125
vt 0.03125 0.953125
vt 0.03125 0.9375
vt 0 0.9375
vn 0 0 -1
vn 1 0 0
vn 0 0 1
vn -1 0 0
vn 0 1 0
vn 0 -1 0
usemtl m_ba4ec1ab-56cf-e947-093a-c95eefdbcb3b
f 28/76/19 31/75/19 29/74/19 26/73/19
f 27/80/20 28/79/20 26/78/20 25/77/20
f 32/84/21 27/83/21 25/82/21 30/81/21
f 31/88/22 32/87/22 30/86/22 29/85/22
f 30/92/23 25/91/23 26/90/23 29/89/23
f 31/96/24 28/95/24 27/94/24 32/93/24
o cube
v -0.010937 -0.207375 -0.136062
v -0.010937 -0.207375 -0.147000
v -0.010937 -0.229250 -0.136062
v -0.010937 -0.229250 -0.147000
v -0.021875 -0.207375 -0.147000
v -0.021875 -0.207375 -0.136062
v -0.021875 -0.229250 -0.147000
v -0.021875 -0.229250 -0.136062
vt 0.046875 0.96875
vt 0.0625 0.96875
vt 0.0625 0.9375
vt 0.046875 0.9375
vt 0.046875 0.96875
vt 0.0625 0.96875
vt 0.0625 0.9375
vt 0.046875 0.9375
vt 0 0.96875
vt 0.015625 0.96875
vt 0.015625 0.9375
vt 0 0.9375
vt 0 0.96875
vt 0.015625 0.96875
vt 0.015625 0.9375
vt 0 0.9375
vt 0 1
vt 0.015625 1
vt 0.015625 0.984375
vt 0 0.984375
vt 0 0.953125
vt 0.015625 0.953125
vt 0.015625 0.9375
vt 0 0.9375
vn 0 0 -1
vn 1 0 0
vn 0 0 1
vn -1 0 0
vn 0 1 0
vn 0 -1 0
usemtl m_ba4ec1ab-56cf-e947-093a-c95eefdbcb3b
f 36/100/25 39/99/25 37/98/25 34/97/25
f 35/104/26 36/103/26 34/102/26 33/101/26
f 40/108/27 35/107/27 33/106/27 38/105/27
f 39/112/28 40/111/28 38/110/28 37/109/28
f 38/116/29 33/115/29 34/114/29 37/113/29
f 39/120/30 36/119/30 35/118/30 40/117/30
o cube
v -0.043750 -0.207375 -0.136062
v -0.043750 -0.207375 -0.147000
v -0.043750 -0.229250 -0.136062
v -0.043750 -0.229250 -0.147000
v -0.054688 -0.207375 -0.147000
v -0.054688 -0.207375 -0.136062
v -0.054688 -0.229250 -0.147000
v -0.054688 -0.229250 -0.136062
vt 0.046875 0.96875
vt 0.0625 0.96875
vt 0.0625 0.9375
vt 0.046875 0.9375
vt 0.046875 0.96875
vt 0.0625 0.96875
vt 0.0625 0.9375
vt 0.046875 0.9375
vt 0 0.96875
vt 0.015625 0.96875
vt 0.015625 0.9375
vt 0 0.9375
vt 0 0.96875
vt 0.015625 0.96875
vt 0.015625 0.9375
vt 0 0.9375
vt 0 1
vt 0.015625 1
vt 0.015625 0.984375
vt 0 0.984375
vt 0 0.953125
vt 0.015625 0.953125
vt 0.015625 0.9375
vt 0 0.9375
vn 0 0 -1
vn 1 0 0
vn 0 0 1
vn -1 0 0
vn 0 1 0
vn 0 -1 0
usemtl m_ba4ec1ab-56cf-e947-093a-c95eefdbcb3b
f 44/124/31 47/123/31 45/122/31 42/121/31
f 43/128/32 44/127/32 42/126/32 41/125/32
f 48/132/33 43/131/33 41/130/33 46/129/33
f 47/136/34 48/135/34 46/134/34 45/133/34
f 46/140/35 41/139/35 42/138/35 45/137/35
f 47/144/36 44/143/36 43/142/36 48/141/36
o cube
v -0.065625 -0.152688 -0.136062
v -0.065625 -0.152688 -0.147000
v -0.065625 -0.163625 -0.136062
v -0.065625 -0.163625 -0.147000
v -0.087500 -0.152688 -0.147000
v -0.087500 -0.152688 -0.136062
v -0.087500 -0.163625 -0.147000
v -0.087500 -0.163625 -0.136062
vt 0.03125 0.953125
vt 0.0625 0.953125
vt 0.0625 0.9375
vt 0.03125 0.9375
vt 0.046875 0.953125
vt 0.0625 0.953125
vt 0.0625 0.9375
vt 0.046875 0.9375
vt 0 0.953125
vt 0.03125 0.953125
vt 0.03125 0.9375
vt 0 0.9375
vt 0 0.953125
vt 0.015625 0.953125
vt 0.015625 0.9375
vt 0 0.9375
vt 0 1
vt 0.03125 1
vt 0.03125 0.984375
vt 0 0.984375
vt 0 0.953125
vt 0.03125 0.953125
vt 0.03125 0.9375
vt 0 0.9375
vn 0 0 -1
vn 1 0 0
vn 0 0 1
vn -1 0 0
vn 0 1 0
vn 0 -1 0
usemtl m_ba4ec1ab-56cf-e947-093a-c95eefdbcb3b
f 52/148/37 55/147/37 53/146/37 50/145/37
f 51/152/38 52/151/38 50/150/38 49/149/38
f 56/156/39 51/155/39 49/154/39 54/153/39
f 55/160/40 56/159/40 54/158/40 53/157/40
f 54/164/41 49/163/41 50/162/41 53/161/41
f 55/168/42 52/167/42 51/166/42 56/165/42
o cube
v -0.054688 -0.163625 -0.136062
v -0.054688 -0.163625 -0.147000
v -0.054688 -0.185500 -0.136062
v -0.054688 -0.185500 -0.147000
v -0.065625 -0.163625 -0.147000
v -0.065625 -0.163625 -0.136062
v -0.065625 -0.185500 -0.147000
v -0.065625 -0.185500 -0.136062
vt 0.046875 0.96875
vt 0.0625 0.96875
vt 0.0625 0.9375
vt 0.046875 0.9375
vt 0.046875 0.96875
vt 0.0625 0.96875
vt 0.0625 0.9375
vt 0.046875 0.9375
vt 0 0.96875
vt 0.015625 0.96875
vt 0.015625 0.9375
vt 0 0.9375
vt 0 0.96875
vt 0.015625 0.96875
vt 0.015625 0.9375
vt 0 0.9375
vt 0 1
vt 0.015625 1
vt 0.015625 0.984375
vt 0 0.984375
vt 0 0.953125
vt 0.015625 0.953125
vt 0.015625 0.9375
vt 0 0.9375
vn 0 0 -1
vn 1 0 0
vn 0 0 1
vn -1 0 0
vn 0 1 0
vn 0 -1 0
usemtl m_ba4ec1ab-56cf-e947-093a-c95eefdbcb3b
f 60/172/43 63/171/43 61/170/43 58/169/43
f 59/176/44 60/175/44 58/174/44 57/173/44
f 64/180/45 59/179/45 57/178/45 62/177/45
f 63/184/46 64/183/46 62/182/46 61/181/46
f 62/188/47 57/187/47 58/186/47 61/185/47
f 63/192/48 60/191/48 59/190/48 64/189/48
o cube
v -0.087500 -0.163625 -0.136062
v -0.087500 -0.163625 -0.147000
v -0.087500 -0.185500 -0.136062
v -0.087500 -0.185500 -0.147000
v -0.098437 -0.163625 -0.147000
v -0.098437 -0.163625 -0.136062
v -0.098437 -0.185500 -0.147000
v -0.098437 -0.185500 -0.136062
vt 0.046875 0.96875
vt 0.0625 0.96875
vt 0.0625 0.9375
vt 0.046875 0.9375
vt 0.046875 0.96875
vt 0.0625 0.96875
vt 0.0625 0.9375
vt 0.046875 0.9375
vt 0 0.96875
vt 0.015625 0.96875
vt 0.015625 0.9375
vt 0 0.9375
vt 0 0.96875
vt 0.015625 0.96875
vt 0.015625 0.9375
vt 0 0.9375
vt 0 1
vt 0.015625 1
vt 0.015625 0.984375
vt 0 0.984375
vt 0 0.953125
vt 0.015625 0.953125
vt 0.015625 0.9375
vt 0 0.9375
vn 0 0 -1
vn 1 0 0
vn 0 0 1
vn -1 0 0
vn 0 1 0
vn 0 -1 0
usemtl m_ba4ec1ab-56cf-e947-093a-c95eefdbcb3b
f 68/196/49 71/195/49 69/194/49 66/193/49
f 67/200/50 68/199/50 66/198/50 65/197/50
f 72/204/51 67/203/51 65/202/51 70/201/51
f 71/208/52 72/207/52 70/206/52 69/205/52
f 70/212/53 65/211/53 66/210/53 69/209/53
f 71/216/54 68/215/54 67/214/54 72/213/54
o cube
v -0.109375 -0.108938 -0.136062
v -0.109375 -0.108938 -0.147000
v -0.109375 -0.119875 -0.136062
v -0.109375 -0.119875 -0.147000
v -0.131250 -0.108938 -0.147000
v -0.131250 -0.108938 -0.136062
v -0.131250 -0.119875 -0.147000
v -0.131250 -0.119875 -0.136062
vt 0.03125 0.953125
vt 0.0625 0.953125
vt 0.0625 0.9375
vt 0.03125 0.9375
vt 0.046875 0.953125
vt 0.0625 0.953125
vt 0.0625 0.9375
vt 0.046875 0.9375
vt 0 0.953125
vt 0.03125 0.953125
vt 0.03125 0.9375
vt 0 0.9375
vt 0 0.953125
vt 0.015625 0.953125
vt 0.015625 0.9375
vt 0 0.9375
vt 0 1
vt 0.03125 1
vt 0.03125 0.984375
vt 0 0.984375
vt 0 0.953125
vt 0.03125 0.953125
vt 0.03125 0.9375
vt 0 0.9375
vn 0 0 -1
vn 1 0 0
vn 0 0 1
vn -1 0 0
vn 0 1 0
vn 0 -1 0
usemtl m_ba4ec1ab-56cf-e947-093a-c95eefdbcb3b
f 76/220/55 79/219/55 77/218/55 74/217/55
f 75/224/56 76/223/56 74/222/56 73/221/56
f 80/228/57 75/227/57 73/226/57 78/225/57
f 79/232/58 80/231/58 78/230/58 77/229/58
f 78/236/59 73/235/59 74/234/59 77/233/59
f 79/240/60 76/239/60 75/238/60 80/237/60
o cube
v -0.098437 -0.119875 -0.136062
v -0.098437 -0.119875 -0.147000
v -0.098437 -0.141750 -0.136062
v -0.098437 -0.141750 -0.147000
v -0.109375 -0.119875 -0.147000
v -0.109375 -0.119875 -0.136062
v -0.109375 -0.141750 -0.147000
v -0.109375 -0.141750 -0.136062
vt 0.046875 0.96875
vt 0.0625 0.96875
vt 0.0625 0.9375
vt 0.046875 0.9375
vt 0.046875 0.96875
vt 0.0625 0.96875
vt 0.0625 0.9375
vt 0.046875 0.9375
vt 0 0.96875
vt 0.015625 0.96875
vt 0.015625 0.9375
vt 0 0.9375
vt 0 0.96875
vt 0.015625 0.96875
vt 0.015625 0.9375
vt 0 0.9375
vt 0 1
vt 0.015625 1
vt 0.015625 0.984375
vt 0 0.984375
vt 0 0.953125
vt 0.015625 0.953125
vt 0.015625 0.9375
vt 0 0.9375
vn 0 0 -1
vn 1 0 0
vn 0 0 1
vn -1 0 0
vn 0 1 0
vn 0 -1 0
usemtl m_ba4ec1ab-56cf-e947-093a-c95eefdbcb3b
f 84/244/61 87/243/61 85/242/61 82/241/61
f 83/248/62 84/247/62 82/246/62 81/245/62
f 88/252/63 83/251/63 81/250/63 86/249/63
f 87/256/64 88/255/64 86/254/64 85/253/64
f 86/260/65 81/259/65 82/258/65 85/257/65
f 87/264/66 84/263/66 83/262/66 88/261/66
o cube
v -0.131250 -0.119875 -0.136062
v -0.131250 -0.119875 -0.147000
v -0.131250 -0.141750 -0.136062
v -0.131250 -0.141750 -0.147000
v -0.142187 -0.119875 -0.147000
v -0.142187 -0.119875 -0.136062
v -0.142187 -0.141750 -0.147000
v -0.142187 -0.141750 -0.136062
vt 0.046875 0.96875
vt 0.0625 0.96875
vt 0.0625 0.9375
vt 0.046875 0.9375
vt 0.046875 0.96875
vt 0.0625 0.96875
vt 0.0625 0.9375
vt 0.046875 0.9375
vt 0 0.96875
vt 0.015625 0.96875
vt 0.015625 0.9375
vt 0 0.9375
vt 0 0.96875
vt 0.015625 0.96875
vt 0.015625 0.9375
vt 0 0.9375
vt 0 1
vt 0.015625 1
vt 0.015625 0.984375
vt 0 0.984375
vt 0 0.953125
vt 0.015625 0.953125
vt 0.015625 0.9375
vt 0 0.9375
vn 0 0 -1
vn 1 0 0
vn 0 0 1
vn -1 0 0
vn 0 1 0
vn 0 -1 0
usemtl m_ba4ec1ab-56cf-e947-093a-c95eefdbcb3b
f 92/268/67 95/267/67 93/266/67 90/265/67
f 91/272/68 92/271/68 90/270/68 89/269/68
f 96/276/69 91/275/69 89/274/69 94/273/69
f 95/280/70 96/279/70 94/278/70 93/277/70
f 94/284/71 89/283/71 90/282/71 93/281/71
f 95/288/72 92/287/72 91/286/72 96/285/72
o cube
v -0.153125 -0.065188 -0.136062
v -0.153125 -0.065188 -0.147000
v -0.153125 -0.076125 -0.136062
v -0.153125 -0.076125 -0.147000
v -0.175000 -0.065188 -0.147000
v -0.175000 -0.065188 -0.136062
v -0.175000 -0.076125 -0.147000
v -0.175000 -0.076125 -0.136062
vt 0.03125 0.953125
vt 0.0625 0.953125
vt 0.0625 0.9375
vt 0.03125 0.9375
vt 0.046875 0.953125
vt 0.0625 0.953125
vt 0.0625 0.9375
vt 0.046875 0.9375
vt 0 0.953125
vt 0.03125 0.953125
vt 0.03125 0.9375
vt 0 0.9375
vt 0 0.953125
vt 0.015625 0.953125
vt 0.015625 0.9375
vt 0 0.9375
vt 0 1
vt 0.03125 1
vt 0.03125 0.984375
vt 0 0.984375
vt 0 0.953125
vt 0.03125 0.953125
vt 0.03125 0.9375
vt 0 0.9375
vn 0 0 -1
vn 1 0 0
vn 0 0 1
vn -1 0 0
vn 0 1 0
vn 0 -1 0
usemtl m_ba4ec1ab-56cf-e947-093a-c95eefdbcb3b
f 100/292/73 103/291/73 101/290/73 98/289/73
f 99/296/74 100/295/74 98/294/74 97/293/74
f 104/300/75 99/299/75 97/298/75 102/297/75
f 103/304/76 104/303/76 102/302/76 101/301/76
f 102/308/77 97/307/77 98/306/77 101/305/77
f 103/312/78 100/311/78 99/310/78 104/309/78
o cube
v -0.142187 -0.076125 -0.136062
v -0.142187 -0.076125 -0.147000
v -0.142187 -0.098000 -0.136062
v -0.142187 -0.098000 -0.147000
v -0.153125 -0.076125 -0.147000
v -0.153125 -0.076125 -0.136062
v -0.153125 -0.098000 -0.147000
v -0.153125 -0.098000 -0.136062
vt 0.046875 0.96875
vt 0.0625 0.96875
vt 0.0625 0.9375
vt 0.046875 0.9375
vt 0.046875 0.96875
vt 0.0625 0.96875
vt 0.0625 0.9375
vt 0.046875 0.9375
vt 0 0.96875
vt 0.015625 0.96875
vt 0.015625 0.9375
vt 0 0.9375
vt 0 0.96875
vt 0.015625 0.96875
vt 0.015625 0.9375
vt 0 0.9375
vt 0 1
vt 0.015625 1
vt 0.015625 0.984375
vt 0 0.984375
vt 0 0.953125
vt 0.015625 0.953125
vt 0.015625 0.9375
vt 0 0.9375
vn 0 0 -1
vn 1 0 0
vn 0 0 1
vn -1 0 0
vn 0 1 0
vn 0 -1 0
usemtl m_ba4ec1ab-56cf-e947-093a-c95eefdbcb3b
f 108/316/79 111/315/79 109/314/79 106/313/79
f 107/320/80 108/319/80 106/318/80 105/317/80
f 112/324/81 107/323/81 105/322/81 110/321/81
f 111/328/82 112/327/82 110/326/82 109/325/82
f 110/332/83 105/331/83 106/330/83 109/329/83
f 111/336/84 108/335/84 107/334/84 112/333/84
o cube
v -0.175000 -0.076125 -0.136062
v -0.175000 -0.076125 -0.147000
v -0.175000 -0.098000 -0.136062
v -0.175000 -0.098000 -0.147000
v -0.185937 -0.076125 -0.147000
v -0.185937 -0.076125 -0.136062
v -0.185937 -0.098000 -0.147000
v -0.185937 -0.098000 -0.136062
vt 0.046875 0.96875
vt 0.0625 0.96875
vt 0.0625 0.9375
vt 0.046875 0.9375
vt 0.046875 0.96875
vt 0.0625 0.96875
vt 0.0625 0.9375
vt 0.046875 0.9375
vt 0 0.96875
vt 0.015625 0.96875
vt 0.015625 0.9375
vt 0 0.9375
vt 0 0.96875
vt 0.015625 0.96875
vt 0.015625 0.9375
vt 0 0.9375
vt 0 1
vt 0.015625 1
vt 0.015625 0.984375
vt 0 0.984375
vt 0 0.953125
vt 0.015625 0.953125
vt 0.015625 0.9375
vt 0 0.9375
vn 0 0 -1
vn 1 0 0
vn 0 0 1
vn -1 0 0
vn 0 1 0
vn 0 -1 0
usemtl m_ba4ec1ab-56cf-e947-093a-c95eefdbcb3b
f 116/340/85 119/339/85 117/338/85 114/337/85
f 115/344/86 116/343/86 114/342/86 113/341/86
f 120/348/87 115/347/87 113/346/87 118/345/87
f 119/352/88 120/351/88 118/350/88 117/349/88
f 118/356/89 113/355/89 114/354/89 117/353/89
f 119/360/90 116/359/90 115/358/90 120/357/90
o cube
v 0.175000 0.361375 -0.147000
v 0.175000 0.361375 -0.190750
v 0.175000 -0.338625 -0.147000
v 0.175000 -0.338625 -0.190750
v -0.525000 0.361375 -0.190750
v -0.525000 0.361375 -0.147000
v -0.525000 -0.338625 -0.190750
v -0.525000 -0.338625 -0.147000
vt 1 1
vt 0 1
vt 0 0
vt 1 0
vt 0 1
vt 1 1
vt 1 0
vt 0 0
vn 0 0 -1
vn 0 0 1
usemtl m_6c0929f8-535f-b69c-9d7f-285c572b3c2c
f 124/364/91 127/363/91 125/362/91 122/361/91
usemtl m_36dac190-4d46-5220-e476-8262ec07faef
f 128/368/92 123/367/92 121/366/92 126/365/92
o cube
v -0.032812 -0.316750 -0.147000
v -0.032812 -0.316750 -0.190750
v -0.032812 -0.327687 -0.147000
v -0.032812 -0.327687 -0.190750
v -0.043750 -0.316750 -0.190750
v -0.043750 -0.316750 -0.147000
v -0.043750 -0.327687 -0.190750
v -0.043750 -0.327687 -0.147000
vt 0 0.828125
vt 0.0625 0.828125
vt 0.0625 0.8125
vt 0 0.8125
vt 0 0.828125
vt 0.0625 0.828125
vt 0.0625 0.8125
vt 0 0.8125
vt 0 1
vt 0.015625 1
vt 0.015625 0.9375
vt 0 0.9375
vt 0 1
vt 0.015625 1
vt 0.015625 0.9375
vt 0 0.9375
vn 1 0 0
vn -1 0 0
vn 0 1 0
vn 0 -1 0
usemtl m_bccd8665-9303-13f7-7aad-d500efd02dda
f 131/372/93 132/371/93 130/370/93 129/369/93
f 135/376/94 136/375/94 134/374/94 133/373/94
f 134/380/95 129/379/95 130/378/95 133/377/95
f 135/384/96 132/383/96 131/382/96 136/381/96
o cube
v -0.043750 -0.305812 -0.147000
v -0.043750 -0.305812 -0.190750
v -0.043750 -0.316750 -0.147000
v -0.043750 -0.316750 -0.190750
v -0.054688 -0.305812 -0.190750
v -0.054688 -0.305812 -0.147000
v -0.054688 -0.316750 -0.190750
v -0.054688 -0.316750 -0.147000
vt 0 0.828125
vt 0.0625 0.828125
vt 0.0625 0.8125
vt 0 0.8125
vt 0 0.828125
vt 0.0625 0.828125
vt 0.0625 0.8125
vt 0 0.8125
vt 0 1
vt 0.015625 1
vt 0.015625 0.9375
vt 0 0.9375
vt 0 1
vt 0.015625 1
vt 0.015625 0.9375
vt 0 0.9375
vn 1 0 0
vn -1 0 0
vn 0 1 0
vn 0 -1 0
usemtl m_bccd8665-9303-13f7-7aad-d500efd02dda
f 139/388/97 140/387/97 138/386/97 137/385/97
f 143/392/98 144/391/98 142/390/98 141/389/98
f 142/396/99 137/395/99 138/394/99 141/393/99
f 143/400/100 140/399/100 139/398/100 144/397/100
o cube
v -0.054688 -0.294875 -0.147000
v -0.054688 -0.294875 -0.190750
v -0.054688 -0.305812 -0.147000
v -0.054688 -0.305812 -0.190750
v -0.065625 -0.294875 -0.190750
v -0.065625 -0.294875 -0.147000
v -0.065625 -0.305812 -0.190750
v -0.065625 -0.305812 -0.147000
vt 0 0.828125
vt 0.0625 0.828125
vt 0.0625 0.8125
vt 0 0.8125
vt 0 0.828125
vt 0.0625 0.828125
vt 0.0625 0.8125
vt 0 0.8125
vt 0 1
vt 0.015625 1
vt 0.015625 0.9375
vt 0 0.9375
vn 1 0 0
vn -1 0 0
vn 0 -1 0
usemtl m_bccd8665-9303-13f7-7aad-d500efd02dda
f 147/404/101 148/403/101 146/402/101 145/401/101
f 151/408/102 152/407/102 150/406/102 149/405/102
f 151/412/103 148/411/103 147/410/103 152/409/103
o cube
v -0.065625 -0.283938 -0.147000
v -0.065625 -0.283938 -0.190750
v -0.065625 -0.294875 -0.147000
v -0.065625 -0.294875 -0.190750
v -0.076562 -0.283938 -0.190750
v -0.076562 -0.283938 -0.147000
v -0.076562 -0.294875 -0.190750
v -0.076562 -0.294875 -0.147000
vt 0 0.828125
vt 0.0625 0.828125
vt 0.0625 0.8125
vt 0 0.8125
vt 0 0.828125
vt 0.0625 0.828125
vt 0.0625 0.8125
vt 0 0.8125
vt 0 1
vt 0.015625 1
vt 0.015625 0.9375
vt 0 0.9375
vn 1 0 0
vn -1 0 0
vn 0 -1 0
usemtl m_bccd8665-9303-13f7-7aad-d500efd02dda
f 155/416/104 156/415/104 154/414/104 153/413/104
f 159/420/105 160/419/105 158/418/105 157/417/105
f 159/424/106 156/423/106 155/422/106 160/421/106
o cube
v -0.076562 -0.273000 -0.147000
v -0.076562 -0.273000 -0.190750
v -0.076562 -0.283938 -0.147000
v -0.076562 -0.283938 -0.190750
v -0.087500 -0.273000 -0.190750
v -0.087500 -0.273000 -0.147000
v -0.087500 -0.283938 -0.190750
v -0.087500 -0.283938 -0.147000
vt 0 0.828125
vt 0.0625 0.828125
vt 0.0625 0.8125
vt 0 0.8125
vt 0 0.828125
vt 0.0625 0.828125
vt 0.0625 0.8125
vt 0 0.8125
vt 0 1
vt 0.015625 1
vt 0.015625 0.9375
vt 0 0.9375
vt 0 1
vt 0.015625 1
vt 0.015625 0.9375
vt 0 0.9375
vn 1 0 0
vn -1 0 0
vn 0 1 0
vn 0 -1 0
usemtl m_bccd8665-9303-13f7-7aad-d500efd02dda
f 163/428/107 164/427/107 162/426/107 161/425/107
f 167/432/108 168/431/108 166/430/108 165/429/108
f 166/436/109 161/435/109 162/434/109 165/433/109
f 167/440/110 164/439/110 163/438/110 168/437/110
o cube
v -0.087500 -0.262062 -0.147000
v -0.087500 -0.262062 -0.190750
v -0.087500 -0.273000 -0.147000
v -0.087500 -0.273000 -0.190750
v -0.098437 -0.262062 -0.190750
v -0.098437 -0.262062 -0.147000
v -0.098437 -0.273000 -0.190750
v -0.098437 -0.273000 -0.147000
vt 0 0.828125
vt 0.0625 0.828125
vt 0.0625 0.8125
vt 0 0.8125
vt 0 0.828125
vt 0.0625 0.828125
vt 0.0625 0.8125
vt 0 0.8125
vt 0 1
vt 0.015625 1
vt 0.015625 0.9375
vt 0 0.9375
vt 0 1
vt 0.015625 1
vt 0.015625 0.9375
vt 0 0.9375
vn 1 0 0
vn -1 0 0
vn 0 1 0
vn 0 -1 0
usemtl m_bccd8665-9303-13f7-7aad-d500efd02dda
f 171/444/111 172/443/111 170/442/111 169/441/111
f 175/448/112 176/447/112 174/446/112 173/445/112
f 174/452/113 169/451/113 170/450/113 173/449/113
f 175/456/114 172/455/114 171/454/114 176/453/114
o cube
v -0.098437 -0.251125 -0.147000
v -0.098437 -0.251125 -0.190750
v -0.098437 -0.262062 -0.147000
v -0.098437 -0.262062 -0.190750
v -0.109375 -0.251125 -0.190750
v -0.109375 -0.251125 -0.147000
v -0.109375 -0.262062 -0.190750
v -0.109375 -0.262062 -0.147000
vt 0 0.828125
vt 0.0625 0.828125
vt 0.0625 0.8125
vt 0 0.8125
vt 0 0.828125
vt 0.0625 0.828125
vt 0.0625 0.8125
vt 0 0.8125
vt 0 1
vt 0.015625 1
vt 0.015625 0.9375
vt 0 0.9375
vn 1 0 0
vn -1 0 0
vn 0 -1 0
usemtl m_bccd8665-9303-13f7-7aad-d500efd02dda
f 179/460/115 180/459/115 178/458/115 177/457/115
f 183/464/116 184/463/116 182/462/116 181/461/116
f 183/468/117 180/467/117 179/466/117 184/465/117
o cube
v -0.109375 -0.240187 -0.147000
v -0.109375 -0.240187 -0.190750
v -0.109375 -0.251125 -0.147000
v -0.109375 -0.251125 -0.190750
v -0.120312 -0.240187 -0.190750
v -0.120312 -0.240187 -0.147000
v -0.120312 -0.251125 -0.190750
v -0.120312 -0.251125 -0.147000
vt 0 0.828125
vt 0.0625 0.828125
vt 0.0625 0.8125
vt 0 0.8125
vt 0 0.828125
vt 0.0625 0.828125
vt 0.0625 0.8125
vt 0 0.8125
vt 0 1
vt 0.015625 1
vt 0.015625 0.9375
vt 0 0.9375
vt 0 1
vt 0.015625 1
vt 0.015625 0.9375
vt 0 0.9375
vn 1 0 0
vn -1 0 0
vn 0 1 0
vn 0 -1 0
usemtl m_bccd8665-9303-13f7-7aad-d500efd02dda
f 187/472/118 188/471/118 186/470/118 185/469/118
f 191/476/119 192/475/119 190/474/119 189/473/119
f 190/480/120 185/479/120 186/478/120 189/477/120
f 191/484/121 188/483/121 187/482/121 192/481/121
o cube
v -0.120312 -0.229250 -0.147000
v -0.120312 -0.229250 -0.190750
v -0.120312 -0.240187 -0.147000
v -0.120312 -0.240187 -0.190750
v -0.131250 -0.229250 -0.190750
v -0.131250 -0.229250 -0.147000
v -0.131250 -0.240187 -0.190750
v -0.131250 -0.240187 -0.147000
vt 0 0.828125
vt 0.0625 0.828125
vt 0.0625 0.8125
vt 0 0.8125
vt 0 0.828125
vt 0.0625 0.828125
vt 0.0625 0.8125
vt 0 0.8125
vt 0 1
vt 0.015625 1
vt 0.015625 0.9375
vt 0 0.9375
vt 0 1
vt 0.015625 1
vt 0.015625 0.9375
vt 0 0.9375
vn 1 0 0
vn -1 0 0
vn 0 1 0
vn 0 -1 0
usemtl m_bccd8665-9303-13f7-7aad-d500efd02dda
f 195/488/122 196/487/122 194/486/122 193/485/122
f 199/492/123 200/491/123 198/490/123 197/489/123
f 198/496/124 193/495/124 194/494/124 197/493/124
f 199/500/125 196/499/125 195/498/125 200/497/125
o cube
v -0.131250 -0.218312 -0.147000
v -0.131250 -0.218312 -0.190750
v -0.131250 -0.229250 -0.147000
v -0.131250 -0.229250 -0.190750
v -0.142187 -0.218312 -0.190750
v -0.142187 -0.218312 -0.147000
v -0.142187 -0.229250 -0.190750
v -0.142187 -0.229250 -0.147000
vt 0 0.828125
vt 0.0625 0.828125
vt 0.0625 0.8125
vt 0 0.8125
vt 0 0.828125
vt 0.0625 0.828125
vt 0.0625 0.8125
vt 0 0.8125
vt 0 1
vt 0.015625 1
vt 0.015625 0.9375
vt 0 0.9375
vt 0 1
vt 0.015625 1
vt 0.015625 0.9375
vt 0 0.9375
vn 1 0 0
vn -1 0 0
vn 0 1 0
vn 0 -1 0
usemtl m_bccd8665-9303-13f7-7aad-d500efd02dda
f 203/504/126 204/503/126 202/502/126 201/501/126
f 207/508/127 208/507/127 206/506/127 205/505/127
f 206/512/128 201/511/128 202/510/128 205/509/128
f 207/516/129 204/515/129 203/514/129 208/513/129
o cube
v -0.142187 -0.207375 -0.147000
v -0.142187 -0.207375 -0.190750
v -0.142187 -0.218312 -0.147000
v -0.142187 -0.218312 -0.190750
v -0.153125 -0.207375 -0.190750
v -0.153125 -0.207375 -0.147000
v -0.153125 -0.218312 -0.190750
v -0.153125 -0.218312 -0.147000
vt 0 0.828125
vt 0.0625 0.828125
vt 0.0625 0.8125
vt 0 0.8125
vt 0 0.828125
vt 0.0625 0.828125
vt 0.0625 0.8125
vt 0 0.8125
vt 0 1
vt 0.015625 1
vt 0.015625 0.9375
vt 0 0.9375
vt 0 1
vt 0.015625 1
vt 0.015625 0.9375
vt 0 0.9375
vn 1 0 0
vn -1 0 0
vn 0 1 0
vn 0 -1 0
usemtl m_bccd8665-9303-13f7-7aad-d500efd02dda
f 211/520/130 212/519/130 210/518/130 209/517/130
f 215/524/131 216/523/131 214/522/131 213/521/131
f 214/528/132 209/527/132 210/526/132 213/525/132
f 215/532/133 212/531/133 211/530/133 216/529/133
o cube
v -0.153125 -0.196437 -0.147000
v -0.153125 -0.196437 -0.190750
v -0.153125 -0.207375 -0.147000
v -0.153125 -0.207375 -0.190750
v -0.164062 -0.196437 -0.190750
v -0.164062 -0.196437 -0.147000
v -0.164062 -0.207375 -0.190750
v -0.164062 -0.207375 -0.147000
vt 0 0.828125
vt 0.0625 0.828125
vt 0.0625 0.8125
vt 0 0.8125
vt 0 0.828125
vt 0.0625 0.828125
vt 0.0625 0.8125
vt 0 0.8125
vt 0 1
vt 0.015625 1
vt 0.015625 0.9375
vt 0 0.9375
vt 0 1
vt 0.015625 1
vt 0.015625 0.9375
vt 0 0.9375
vn 1 0 0
vn -1 0 0
vn 0 1 0
vn 0 -1 0
usemtl m_bccd8665-9303-13f7-7aad-d500efd02dda
f 219/536/134 220/535/134 218/534/134 217/533/134
f 223/540/135 224/539/135 222/538/135 221/537/135
f 222/544/136 217/543/136 218/542/136 221/541/136
f 223/548/137 220/547/137 219/546/137 224/545/137
o cube
v -0.164062 -0.185500 -0.147000
v -0.164062 -0.185500 -0.190750
v -0.164062 -0.196437 -0.147000
v -0.164062 -0.196437 -0.190750
v -0.175000 -0.185500 -0.190750
v -0.175000 -0.185500 -0.147000
v -0.175000 -0.196437 -0.190750
v -0.175000 -0.196437 -0.147000
vt 0 0.828125
vt 0.0625 0.828125
vt 0.0625 0.8125
vt 0 0.8125
vt 0 0.828125
vt 0.0625 0.828125
vt 0.0625 0.8125
vt 0 0.8125
vt 0 1
vt 0.015625 1
vt 0.015625 0.9375
vt 0 0.9375
vt 0 1
vt 0.015625 1
vt 0.015625 0.9375
vt 0 0.9375
vn 1 0 0
vn -1 0 0
vn 0 1 0
vn 0 -1 0
usemtl m_bccd8665-9303-13f7-7aad-d500efd02dda
f 227/552/138 228/551/138 226/550/138 225/549/138
f 231/556/139 232/555/139 230/554/139 229/553/139
f 230/560/140 225/559/140 226/558/140 229/557/140
f 231/564/141 228/563/141 227/562/141 232/561/141
o cube
v -0.175000 -0.174563 -0.147000
v -0.175000 -0.174563 -0.190750
v -0.175000 -0.185500 -0.147000
v -0.175000 -0.185500 -0.190750
v -0.185937 -0.174563 -0.190750
v -0.185937 -0.174563 -0.147000
v -0.185937 -0.185500 -0.190750
v -0.185937 -0.185500 -0.147000
vt 0 0.828125
vt 0.0625 0.828125
vt 0.0625 0.8125
vt 0 0.8125
vt 0 0.828125
vt 0.0625 0.828125
vt 0.0625 0.8125
vt 0 0.8125
vt 0 1
vt 0.015625 1
vt 0.015625 0.9375
vt 0 0.9375
vt 0 1
vt 0.015625 1
vt 0.015625 0.9375
vt 0 0.9375
vn 1 0 0
vn -1 0 0
vn 0 1 0
vn 0 -1 0
usemtl m_bccd8665-9303-13f7-7aad-d500efd02dda
f 235/568/142 236/567/142 234/566/142 233/565/142
f 239/572/143 240/571/143 238/570/143 237/569/143
f 238/576/144 233/575/144 234/574/144 237/573/144
f 239/580/145 236/579/145 235/578/145 240/577/145
o cube
v -0.185937 -0.163625 -0.147000
v -0.185937 -0.163625 -0.190750
v -0.185937 -0.174563 -0.147000
v -0.185937 -0.174563 -0.190750
v -0.196875 -0.163625 -0.190750
v -0.196875 -0.163625 -0.147000
v -0.196875 -0.174563 -0.190750
v -0.196875 -0.174563 -0.147000
vt 0 0.828125
vt 0.0625 0.828125
vt 0.0625 0.8125
vt 0 0.8125
vt 0 0.828125
vt 0.0625 0.828125
vt 0.0625 0.8125
vt 0 0.8125
vt 0 1
vt 0.015625 1
vt 0.015625 0.9375
vt 0 0.9375
vt 0 1
vt 0.015625 1
vt 0.015625 0.9375
vt 0 0.9375
vn 1 0 0
vn -1 0 0
vn 0 1 0
vn 0 -1 0
usemtl m_bccd8665-9303-13f7-7aad-d500efd02dda
f 243/584/146 244/583/146 242/582/146 241/581/146
f 247/588/147 248/587/147 246/586/147 245/585/147
f 246/592/148 241/591/148 242/590/148 245/589/148
f 247/596/149 244/595/149 243/594/149 248/593/149
o cube
v -0.196875 -0.152688 -0.147000
v -0.196875 -0.152688 -0.190750
v -0.196875 -0.163625 -0.147000
v -0.196875 -0.163625 -0.190750
v -0.207812 -0.152688 -0.190750
v -0.207812 -0.152688 -0.147000
v -0.207812 -0.163625 -0.190750
v -0.207812 -0.163625 -0.147000
vt 0 0.828125
vt 0.0625 0.828125
vt 0.0625 0.8125
vt 0 0.8125
vt 0 0.828125
vt 0.0625 0.828125
vt 0.0625 0.8125
vt 0 0.8125
vt 0 1
vt 0.015625 1
vt 0.015625 0.9375
vt 0 0.9375
vt 0 1
vt 0.015625 1
vt 0.015625 0.9375
vt 0 0.9375
vn 1 0 0
vn -1 0 0
vn 0 1 0
vn 0 -1 0
usemtl m_bccd8665-9303-13f7-7aad-d500efd02dda
f 251/600/150 252/599/150 250/598/150 249/597/150
f 255/604/151 256/603/151 254/602/151 253/601/151
f 254/608/152 249/607/152 250/606/152 253/605/152
f 255/612/153 252/611/153 251/610/153 256/609/153
o cube
v -0.207812 -0.141750 -0.147000
v -0.207812 -0.141750 -0.190750
v -0.207812 -0.152688 -0.147000
v -0.207812 -0.152688 -0.190750
v -0.218750 -0.141750 -0.190750
v -0.218750 -0.141750 -0.147000
v -0.218750 -0.152688 -0.190750
v -0.218750 -0.152688 -0.147000
vt 0 0.828125
vt 0.0625 0.828125
vt 0.0625 0.8125
vt 0 0.8125
vt 0 0.828125
vt 0.0625 0.828125
vt 0.0625 0.8125
vt 0 0.8125
vt 0 1
vt 0.015625 1
vt 0.015625 0.9375
vt 0 0.9375
vt 0 1
vt 0.015625 1
vt 0.015625 0.9375
vt 0 0.9375
vn 1 0 0
vn -1 0 0
vn 0 1 0
vn 0 -1 0
usemtl m_bccd8665-9303-13f7-7aad-d500efd02dda
f 259/616/154 260/615/154 258/614/154 257/613/154
f 263/620/155 264/619/155 262/618/155 261/617/155
f 262/624/156 257/623/156 258/622/156 261/621/156
f 263/628/157 260/627/157 259/626/157 264/625/157
o cube
v -0.218750 -0.130812 -0.147000
v -0.218750 -0.130812 -0.190750
v -0.218750 -0.141750 -0.147000
v -0.218750 -0.141750 -0.190750
v -0.229687 -0.130812 -0.190750
v -0.229687 -0.130812 -0.147000
v -0.229687 -0.141750 -0.190750
v -0.229687 -0.141750 -0.147000
vt 0 0.828125
vt 0.0625 0.828125
vt 0.0625 0.8125
vt 0 0.8125
vt 0 0.828125
vt 0.0625 0.828125
vt 0.0625 0.8125
vt 0 0.8125
vt 0 1
vt 0.015625 1
vt 0.015625 0.9375
vt 0 0.9375
vt 0 1
vt 0.015625 1
vt 0.015625 0.9375
vt 0 0.9375
vn 1 0 0
vn -1 0 0
vn 0 1 0
vn 0 -1 0
usemtl m_bccd8665-9303-13f7-7aad-d500efd02dda
f 267/632/158 268/631/158 266/630/158 265/629/158
f 271/636/159 272/635/159 270/634/159 269/633/159
f 270/640/160 265/639/160 266/638/160 269/637/160
f 271/644/161 268/643/161 267/642/161 272/641/161
o cube
v 0.065625 -0.196437 -0.147000
v 0.065625 -0.196437 -0.190750
v 0.065625 -0.207375 -0.147000
v 0.065625 -0.207375 -0.190750
v 0.054688 -0.196437 -0.190750
v 0.054688 -0.196437 -0.147000
v 0.054688 -0.207375 -0.190750
v 0.054688 -0.207375 -0.147000
vt 0 0.828125
vt 0.0625 0.828125
vt 0.0625 0.8125
vt 0 0.8125
vt 0 0.828125
vt 0.0625 0.828125
vt 0.0625 0.8125
vt 0 0.8125
vt 0 1
vt 0.015625 1
vt 0.015625 0.9375
vt 0 0.9375
vt 0 1
vt 0.015625 1
vt 0.015625 0.9375
vt 0 0.9375
vn 1 0 0
vn -1 0 0
vn 0 1 0
vn 0 -1 0
usemtl m_bccd8665-9303-13f7-7aad-d500efd02dda
f 275/648/162 276/647/162 274/646/162 273/645/162
f 279/652/163 280/651/163 278/650/163 277/649/163
f 278/656/164 273/655/164 274/654/164 277/653/164
f 279/660/165 276/659/165 275/658/165 280/657/165
o cube
v 0.054688 -0.185500 -0.147000
v 0.054688 -0.185500 -0.190750
v 0.054688 -0.196437 -0.147000
v 0.054688 -0.196437 -0.190750
v 0.043750 -0.185500 -0.190750
v 0.043750 -0.185500 -0.147000
v 0.043750 -0.196437 -0.190750
v 0.043750 -0.196437 -0.147000
vt 0 0.828125
vt 0.0625 0.828125
vt 0.0625 0.8125
vt 0 0.8125
vt 0 0.828125
vt 0.0625 0.828125
vt 0.0625 0.8125
vt 0 0.8125
vt 0 1
vt 0.015625 1
vt 0.015625 0.9375
vt 0 0.9375
vt 0 1
vt 0.015625 1
vt 0.015625 0.9375
vt 0 0.9375
vn 1 0 0
vn -1 0 0
vn 0 1 0
vn 0 -1 0
usemtl m_bccd8665-9303-13f7-7aad-d500efd02dda
f 283/664/166 284/663/166 282/662/166 281/661/166
f 287/668/167 288/667/167 286/666/167 285/665/167
f 286/672/168 281/671/168 282/670/168 285/669/168
f 287/676/169 284/675/169 283/674/169 288/673/169
o cube
v 0.043750 -0.174563 -0.147000
v 0.043750 -0.174563 -0.190750
v 0.043750 -0.185500 -0.147000
v 0.043750 -0.185500 -0.190750
v 0.032812 -0.174563 -0.190750
v 0.032812 -0.174563 -0.147000
v 0.032812 -0.185500 -0.190750
v 0.032812 -0.185500 -0.147000
vt 0 0.828125
vt 0.0625 0.828125
vt 0.0625 0.8125
vt 0 0.8125
vt 0 0.828125
vt 0.0625 0.828125
vt 0.0625 0.8125
vt 0 0.8125
vt 0 1
vt 0.015625 1
vt 0.015625 0.9375
vt 0 0.9375
vt 0 1
vt 0.015625 1
vt 0.015625 0.9375
vt 0 0.9375
vn 1 0 0
vn -1 0 0
vn 0 1 0
vn 0 -1 0
usemtl m_bccd8665-9303-13f7-7aad-d500efd02dda
f 291/680/170 292/679/170 290/678/170 289/677/170
f 295/684/171 296/683/171 294/682/171 293/681/171
f 294/688/172 289/687/172 290/686/172 293/685/172
f 295/692/173 292/691/173 291/690/173 296/689/173
o cube
v 0.032812 -0.163625 -0.147000
v 0.032812 -0.163625 -0.190750
v 0.032812 -0.174563 -0.147000
v 0.032812 -0.174563 -0.190750
v 0.021875 -0.163625 -0.190750
v 0.021875 -0.163625 -0.147000
v 0.021875 -0.174563 -0.190750
v 0.021875 -0.174563 -0.147000
vt 0 0.828125
vt 0.0625 0.828125
vt 0.0625 0.8125
vt 0 0.8125
vt 0 0.828125
vt 0.0625 0.828125
vt 0.0625 0.8125
vt 0 0.8125
vt 0 1
vt 0.015625 1
vt 0.015625 0.9375
vt 0 0.9375
vt 0 1
vt 0.015625 1
vt 0.015625 0.9375
vt 0 0.9375
vn 1 0 0
vn -1 0 0
vn 0 1 0
vn 0 -1 0
usemtl m_bccd8665-9303-13f7-7aad-d500efd02dda
f 299/696/174 300/695/174 298/694/174 297/693/174
f 303/700/175 304/699/175 302/698/175 301/697/175
f 302/704/176 297/703/176 298/702/176 301/701/176
f 303/708/177 300/707/177 299/706/177 304/705/177
o cube
v 0.021875 -0.152688 -0.147000
v 0.021875 -0.152688 -0.190750
v 0.021875 -0.163625 -0.147000
v 0.021875 -0.163625 -0.190750
v 0.010937 -0.152688 -0.190750
v 0.010937 -0.152688 -0.147000
v 0.010937 -0.163625 -0.190750
v 0.010937 -0.163625 -0.147000
vt 0 0.828125
vt 0.0625 0.828125
vt 0.0625 0.8125
vt 0 0.8125
vt 0 0.828125
vt 0.0625 0.828125
vt 0.0625 0.8125
vt 0 0.8125
vt 0 1
vt 0.015625 1
vt 0.015625 0.9375
vt 0 0.9375
vt 0 1
vt 0.015625 1
vt 0.015625 0.9375
vt 0 0.9375
vn 1 0 0
vn -1 0 0
vn 0 1 0
vn 0 -1 0
usemtl m_bccd8665-9303-13f7-7aad-d500efd02dda
f 307/712/178 308/711/178 306/710/178 305/709/178
f 311/716/179 312/715/179 310/714/179 309/713/179
f 310/720/180 305/719/180 306/718/180 309/717/180
f 311/724/181 308/723/181 307/722/181 312/721/181
o cube
v 0.010937 -0.141750 -0.147000
v 0.010937 -0.141750 -0.190750
v 0.010937 -0.152688 -0.147000
v 0.010937 -0.152688 -0.190750
v 0.000000 -0.141750 -0.190750
v 0.000000 -0.141750 -0.147000
v 0.000000 -0.152688 -0.190750
v 0.000000 -0.152688 -0.147000
vt 0 0.828125
vt 0.0625 0.828125
vt 0.0625 0.8125
vt 0 0.8125
vt 0 0.828125
vt 0.0625 0.828125
vt 0.0625 0.8125
vt 0 0.8125
vt 0 1
vt 0.015625 1
vt 0.015625 0.9375
vt 0 0.9375
vt 0 1
vt 0.015625 1
vt 0.015625 0.9375
vt 0 0.9375
vn 1 0 0
vn -1 0 0
vn 0 1 0
vn 0 -1 0
usemtl m_bccd8665-9303-13f7-7aad-d500efd02dda
f 315/728/182 316/727/182 314/726/182 313/725/182
f 319/732/183 320/731/183 318/730/183 317/729/183
f 318/736/184 313/735/184 314/734/184 317/733/184
f 319/740/185 316/739/185 315/738/185 320/737/185
o cube
v 0.000000 -0.130812 -0.147000
v 0.000000 -0.130812 -0.190750
v 0.000000 -0.141750 -0.147000
v 0.000000 -0.141750 -0.190750
v -0.010937 -0.130812 -0.190750
v -0.010937 -0.130812 -0.147000
v -0.010937 -0.141750 -0.190750
v -0.010937 -0.141750 -0.147000
vt 0 0.828125
vt 0.0625 0.828125
vt 0.0625 0.8125
vt 0 0.8125
vt 0 0.828125
vt 0.0625 0.828125
vt 0.0625 0.8125
vt 0 0.8125
vt 0 1
vt 0.015625 1
vt 0.015625 0.9375
vt 0 0.9375
vt 0 1
vt 0.015625 1
vt 0.015625 0.9375
vt 0 0.9375
vn 1 0 0
vn -1 0 0
vn 0 1 0
vn 0 -1 0
usemtl m_bccd8665-9303-13f7-7aad-d500efd02dda
f 323/744/186 324/743/186 322/742/186 321/741/186
f 327/748/187 328/747/187 326/746/187 325/745/187
f 326/752/188 321/751/188 322/750/188 325/749/188
f 327/756/189 324/755/189 323/754/189 328/753/189
o cube
v -0.010937 -0.119875 -0.147000
v -0.010937 -0.119875 -0.190750
v -0.010937 -0.130812 -0.147000
v -0.010937 -0.130812 -0.190750
v -0.021875 -0.119875 -0.190750
v -0.021875 -0.119875 -0.147000
v -0.021875 -0.130812 -0.190750
v -0.021875 -0.130812 -0.147000
vt 0 0.828125
vt 0.0625 0.828125
vt 0.0625 0.8125
vt 0 0.8125
vt 0 0.828125
vt 0.0625 0.828125
vt 0.0625 0.8125
vt 0 0.8125
vt 0 1
vt 0.015625 1
vt 0.015625 0.9375
vt 0 0.9375
vt 0 1
vt 0.015625 1
vt 0.015625 0.9375
vt 0 0.9375
vn 1 0 0
vn -1 0 0
vn 0 1 0
vn 0 -1 0
usemtl m_bccd8665-9303-13f7-7aad-d500efd02dda
f 331/760/190 332/759/190 330/758/190 329/757/190
f 335/764/191 336/763/191 334/762/191 333/761/191
f 334/768/192 329/767/192 330/766/192 333/765/192
f 335/772/193 332/771/193 331/770/193 336/769/193
o cube
v -0.021875 -0.108938 -0.147000
v -0.021875 -0.108938 -0.190750
v -0.021875 -0.119875 -0.147000
v -0.021875 -0.119875 -0.190750
v -0.032812 -0.108938 -0.190750
v -0.032812 -0.108938 -0.147000
v -0.032812 -0.119875 -0.190750
v -0.032812 -0.119875 -0.147000
vt 0 0.828125
vt 0.0625 0.828125
vt 0.0625 0.8125
vt 0 0.8125
vt 0 0.828125
vt 0.0625 0.828125
vt 0.0625 0.8125
vt 0 0.8125
vt 0 1
vt 0.015625 1
vt 0.015625 0.9375
vt 0 0.9375
vt 0 1
vt 0.015625 1
vt 0.015625 0.9375
vt 0 0.9375
vn 1 0 0
vn -1 0 0
vn 0 1 0
vn 0 -1 0
usemtl m_bccd8665-9303-13f7-7aad-d500efd02dda
f 339/776/194 340/775/194 338/774/194 337/773/194
f 343/780/195 344/779/195 342/778/195 341/777/195
f 342/784/196 337/783/196 338/782/196 341/781/196
f 343/788/197 340/787/197 339/786/197 344/785/197
o cube
v -0.032812 -0.098000 -0.147000
v -0.032812 -0.098000 -0.190750
v -0.032812 -0.108938 -0.147000
v -0.032812 -0.108938 -0.190750
v -0.043750 -0.098000 -0.190750
v -0.043750 -0.098000 -0.147000
v -0.043750 -0.108938 -0.190750
v -0.043750 -0.108938 -0.147000
vt 0 0.828125
vt 0.0625 0.828125
vt 0.0625 0.8125
vt 0 0.8125
vt 0 0.828125
vt 0.0625 0.828125
vt 0.0625 0.8125
vt 0 0.8125
vt 0 1
vt 0.015625 1
vt 0.015625 0.9375
vt 0 0.9375
vt 0 1
vt 0.015625 1
vt 0.015625 0.9375
vt 0 0.9375
vn 1 0 0
vn -1 0 0
vn 0 1 0
vn 0 -1 0
usemtl m_bccd8665-9303-13f7-7aad-d500efd02dda
f 347/792/198 348/791/198 346/790/198 345/789/198
f 351/796/199 352/795/199 350/794/199 349/793/199
f 350/800/200 345/799/200 346/798/200 349/797/200
f 351/804/201 348/803/201 347/802/201 352/801/201
o cube
v -0.043750 -0.087063 -0.147000
v -0.043750 -0.087063 -0.190750
v -0.043750 -0.098000 -0.147000
v -0.043750 -0.098000 -0.190750
v -0.054688 -0.087063 -0.190750
v -0.054688 -0.087063 -0.147000
v -0.054688 -0.098000 -0.190750
v -0.054688 -0.098000 -0.147000
vt 0 0.828125
vt 0.0625 0.828125
vt 0.0625 0.8125
vt 0 0.8125
vt 0 0.828125
vt 0.0625 0.828125
vt 0.0625 0.8125
vt 0 0.8125
vt 0 1
vt 0.015625 1
vt 0.015625 0.9375
vt 0 0.9375
vt 0 1
vt 0.015625 1
vt 0.015625 0.9375
vt 0 0.9375
vn 1 0 0
vn -1 0 0
vn 0 1 0
vn 0 -1 0
usemtl m_bccd8665-9303-13f7-7aad-d500efd02dda
f 355/808/202 356/807/202 354/806/202 353/805/202
f 359/812/203 360/811/203 358/810/203 357/809/203
f 358/816/204 353/815/204 354/814/204 357/813/204
f 359/820/205 356/819/205 355/818/205 360/817/205
o cube
v -0.054688 -0.076125 -0.147000
v -0.054688 -0.076125 -0.190750
v -0.054688 -0.087063 -0.147000
v -0.054688 -0.087063 -0.190750
v -0.065625 -0.076125 -0.190750
v -0.065625 -0.076125 -0.147000
v -0.065625 -0.087063 -0.190750
v -0.065625 -0.087063 -0.147000
vt 0 0.828125
vt 0.0625 0.828125
vt 0.0625 0.8125
vt 0 0.8125
vt 0 0.828125
vt 0.0625 0.828125
vt 0.0625 0.8125
vt 0 0.8125
vt 0 1
vt 0.015625 1
vt 0.015625 0.9375
vt 0 0.9375
vt 0 1
vt 0.015625 1
vt 0.015625 0.9375
vt 0 0.9375
vn 1 0 0
vn -1 0 0
vn 0 1 0
vn 0 -1 0
usemtl m_bccd8665-9303-13f7-7aad-d500efd02dda
f 363/824/206 364/823/206 362/822/206 361/821/206
f 367/828/207 368/827/207 366/826/207 365/825/207
f 366/832/208 361/831/208 362/830/208 365/829/208
f 367/836/209 364/835/209 363/834/209 368/833/209
o cube
v -0.065625 -0.065188 -0.147000
v -0.065625 -0.065188 -0.190750
v -0.065625 -0.076125 -0.147000
v -0.065625 -0.076125 -0.190750
v -0.076562 -0.065188 -0.190750
v -0.076562 -0.065188 -0.147000
v -0.076562 -0.076125 -0.190750
v -0.076562 -0.076125 -0.147000
vt 0 0.828125
vt 0.0625 0.828125
vt 0.0625 0.8125
vt 0 0.8125
vt 0 0.828125
vt 0.0625 0.828125
vt 0.0625 0.8125
vt 0 0.8125
vt 0 1
vt 0.015625 1
vt 0.015625 0.9375
vt 0 0.9375
vt 0 1
vt 0.015625 1
vt 0.015625 0.9375
vt 0 0.9375
vn 1 0 0
vn -1 0 0
vn 0 1 0
vn 0 -1 0
usemtl m_bccd8665-9303-13f7-7aad-d500efd02dda
f 371/840/210 372/839/210 370/838/210 369/837/210
f 375/844/211 376/843/211 374/842/211 373/841/211
f 374/848/212 369/847/212 370/846/212 373/845/212
f 375/852/213 372/851/213 371/850/213 376/849/213
o cube
v -0.076562 -0.054250 -0.147000
v -0.076562 -0.054250 -0.190750
v -0.076562 -0.065188 -0.147000
v -0.076562 -0.065188 -0.190750
v -0.087500 -0.054250 -0.190750
v -0.087500 -0.054250 -0.147000
v -0.087500 -0.065188 -0.190750
v -0.087500 -0.065188 -0.147000
vt 0 0.828125
vt 0.0625 0.828125
vt 0.0625 0.8125
vt 0 0.8125
vt 0 0.828125
vt 0.0625 0.828125
vt 0.0625 0.8125
vt 0 0.8125
vt 0 1
vt 0.015625 1
vt 0.015625 0.9375
vt 0 0.9375
vt 0 1
vt 0.015625 1
vt 0.015625 0.9375
vt 0 0.9375
vn 1 0 0
vn -1 0 0
vn 0 1 0
vn 0 -1 0
usemtl m_bccd8665-9303-13f7-7aad-d500efd02dda
f 379/856/214 380/855/214 378/854/214 377/853/214
f 383/860/215 384/859/215 382/858/215 381/857/215
f 382/864/216 377/863/216 378/862/216 381/861/216
f 383/868/217 380/867/217 379/866/217 384/865/217
o cube
v -0.087500 -0.043313 -0.147000
v -0.087500 -0.043313 -0.190750
v -0.087500 -0.054250 -0.147000
v -0.087500 -0.054250 -0.190750
v -0.098437 -0.043313 -0.190750
v -0.098437 -0.043313 -0.147000
v -0.098437 -0.054250 -0.190750
v -0.098437 -0.054250 -0.147000
vt 0 0.828125
vt 0.0625 0.828125
vt 0.0625 0.8125
vt 0 0.8125
vt 0 0.828125
vt 0.0625 0.828125
vt 0.0625 0.8125
vt 0 0.8125
vt 0 1
vt 0.015625 1
vt 0.015625 0.9375
vt 0 0.9375
vt 0 1
vt 0.015625 1
vt 0.015625 0.9375
vt 0 0.9375
vn 1 0 0
vn -1 0 0
vn 0 1 0
vn 0 -1 0
usemtl m_bccd8665-9303-13f7-7aad-d500efd02dda
f 387/872/218 388/871/218 386/870/218 385/869/218
f 391/876/219 392/875/219 390/874/219 389/873/219
f 390/880/220 385/879/220 386/878/220 389/877/220
f 391/884/221 388/883/221 387/882/221 392/881/221
o cube
v -0.098437 -0.032375 -0.147000
v -0.098437 -0.032375 -0.190750
v -0.098437 -0.043313 -0.147000
v -0.098437 -0.043313 -0.190750
v -0.109375 -0.032375 -0.190750
v -0.109375 -0.032375 -0.147000
v -0.109375 -0.043313 -0.190750
v -0.109375 -0.043313 -0.147000
vt 0 0.828125
vt 0.0625 0.828125
vt 0.0625 0.8125
vt 0 0.8125
vt 0 0.828125
vt 0.0625 0.828125
vt 0.0625 0.8125
vt 0 0.8125
vt 0 1
vt 0.015625 1
vt 0.015625 0.9375
vt 0 0.9375
vt 0 1
vt 0.015625 1
vt 0.015625 0.9375
vt 0 0.9375
vn 1 0 0
vn -1 0 0
vn 0 1 0
vn 0 -1 0
usemtl m_bccd8665-9303-13f7-7aad-d500efd02dda
f 395/888/222 396/887/222 394/886/222 393/885/222
f 399/892/223 400/891/223 398/890/223 397/889/223
f 398/896/224 393/895/224 394/894/224 397/893/224
f 399/900/225 396/899/225 395/898/225 400/897/225
o cube
v -0.109375 -0.021438 -0.147000
v -0.109375 -0.021438 -0.190750
v -0.109375 -0.032375 -0.147000
v -0.109375 -0.032375 -0.190750
v -0.120312 -0.021438 -0.190750
v -0.120312 -0.021438 -0.147000
v -0.120312 -0.032375 -0.190750
v -0.120312 -0.032375 -0.147000
vt 0 0.828125
vt 0.0625 0.828125
vt 0.0625 0.8125
vt 0 0.8125
vt 0 0.828125
vt 0.0625 0.828125
vt 0.0625 0.8125
vt 0 0.8125
vt 0 1
vt 0.015625 1
vt 0.015625 0.9375
vt 0 0.9375
vt 0 1
vt 0.015625 1
vt 0.015625 0.9375
vt 0 0.9375
vn 1 0 0
vn -1 0 0
vn 0 1 0
vn 0 -1 0
usemtl m_bccd8665-9303-13f7-7aad-d500efd02dda
f 403/904/226 404/903/226 402/902/226 401/901/226
f 407/908/227 408/907/227 406/906/227 405/905/227
f 406/912/228 401/911/228 402/910/228 405/909/228
f 407/916/229 404/915/229 403/914/229 408/913/229
o cube
v 0.032812 -0.338625 -0.147000
v 0.032812 -0.338625 -0.190750
v 0.032812 -0.360500 -0.147000
v 0.032812 -0.360500 -0.190750
v -0.032812 -0.338625 -0.190750
v -0.032812 -0.338625 -0.147000
v -0.032812 -0.360500 -0.190750
v -0.032812 -0.360500 -0.147000
vt 0 1
vt 0.09375 1
vt 0.09375 0.96875
vt 0 0.96875
vt 0 0.84375
vt 0.0625 0.84375
vt 0.0625 0.8125
vt 0 0.8125
vt 0 1
vt 0.09375 1
vt 0.09375 0.96875
vt 0 0.96875
vt 0 0.84375
vt 0.0625 0.84375
vt 0.0625 0.8125
vt 0 0.8125
vt 0 1
vt 0.09375 1
vt 0.09375 0.9375
vt 0 0.9375
vn 0 0 -1
vn 1 0 0
vn 0 0 1
vn -1 0 0
vn 0 -1 0
usemtl m_bccd8665-9303-13f7-7aad-d500efd02dda
f 412/920/230 415/919/230 413/918/230 410/917/230
f 411/924/231 412/923/231 410/922/231 409/921/231
f 416/928/232 411/927/232 409/926/232 414/925/232
f 415/932/233 416/931/233 414/930/233 413/929/233
f 415/936/234 412/935/234 411/934/234 416/933/234
o cube
v 0.043750 -0.316750 -0.147000
v 0.043750 -0.316750 -0.190750
v 0.043750 -0.327687 -0.147000
v 0.043750 -0.327687 -0.190750
v 0.032812 -0.316750 -0.190750
v 0.032812 -0.316750 -0.147000
v 0.032812 -0.327687 -0.190750
v 0.032812 -0.327687 -0.147000
vt 0 0.828125
vt 0.0625 0.828125
vt 0.0625 0.8125
vt 0 0.8125
vt 0 0.828125
vt 0.0625 0.828125
vt 0.0625 0.8125
vt 0 0.8125
vt 0 1
vt 0.015625 1
vt 0.015625 0.9375
vt 0 0.9375
vt 0 1
vt 0.015625 1
vt 0.015625 0.9375
vt 0 0.9375
vn 1 0 0
vn -1 0 0
vn 0 1 0
vn 0 -1 0
usemtl m_bccd8665-9303-13f7-7aad-d500efd02dda
f 419/940/235 420/939/235 418/938/235 417/937/235
f 423/944/236 424/943/236 422/942/236 421/941/236
f 422/948/237 417/947/237 418/946/237 421/945/237
f 423/952/238 420/951/238 419/950/238 424/949/238
o cube
v 0.076562 -0.283938 -0.147000
v 0.076562 -0.283938 -0.190750
v 0.076562 -0.294875 -0.147000
v 0.076562 -0.294875 -0.190750
v 0.065625 -0.283938 -0.190750
v 0.065625 -0.283938 -0.147000
v 0.065625 -0.294875 -0.190750
v 0.065625 -0.294875 -0.147000
vt 0 0.828125
vt 0.0625 0.828125
vt 0.0625 0.8125
vt 0 0.8125
vt 0 0.828125
vt 0.0625 0.828125
vt 0.0625 0.8125
vt 0 0.8125
vt 0 1
vt 0.015625 1
vt 0.015625 0.9375
vt 0 0.9375
vt 0 1
vt 0.015625 1
vt 0.015625 0.9375
vt 0 0.9375
vn 1 0 0
vn -1 0 0
vn 0 1 0
vn 0 -1 0
usemtl m_bccd8665-9303-13f7-7aad-d500efd02dda
f 427/956/239 428/955/239 426/954/239 425/953/239
f 431/960/240 432/959/240 430/958/240 429/957/240
f 430/964/241 425/963/241 426/962/241 429/961/241
f 431/968/242 428/967/242 427/966/242 432/965/242
o cube
v 0.054688 -0.305812 -0.147000
v 0.054688 -0.305812 -0.190750
v 0.054688 -0.316750 -0.147000
v 0.054688 -0.316750 -0.190750
v 0.043750 -0.305812 -0.190750
v 0.043750 -0.305812 -0.147000
v 0.043750 -0.316750 -0.190750
v 0.043750 -0.316750 -0.147000
vt 0 0.828125
vt 0.0625 0.828125
vt 0.0625 0.8125
vt 0 0.8125
vt 0 0.828125
vt 0.0625 0.828125
vt 0.0625 0.8125
vt 0 0.8125
vt 0 1
vt 0.015625 1
vt 0.015625 0.9375
vt 0 0.9375
vn 1 0 0
vn -1 0 0
vn 0 -1 0
usemtl m_bccd8665-9303-13f7-7aad-d500efd02dda
f 435/972/243 436/971/243 434/970/243 433/969/243
f 439/976/244 440/975/244 438/974/244 437/973/244
f 439/980/245 436/979/245 435/978/245 440/977/245
o cube
v 0.065625 -0.294875 -0.147000
v 0.065625 -0.294875 -0.190750
v 0.065625 -0.305812 -0.147000
v 0.065625 -0.305812 -0.190750
v 0.054688 -0.294875 -0.190750
v 0.054688 -0.294875 -0.147000
v 0.054688 -0.305812 -0.190750
v 0.054688 -0.305812 -0.147000
vt 0 0.828125
vt 0.0625 0.828125
vt 0.0625 0.8125
vt 0 0.8125
vt 0 0.828125
vt 0.0625 0.828125
vt 0.0625 0.8125
vt 0 0.8125
vt 0 1
vt 0.015625 1
vt 0.015625 0.9375
vt 0 0.9375
vt 0 1
vt 0.015625 1
vt 0.015625 0.9375
vt 0 0.9375
vn 1 0 0
vn -1 0 0
vn 0 1 0
vn 0 -1 0
usemtl m_bccd8665-9303-13f7-7aad-d500efd02dda
f 443/984/246 444/983/246 442/982/246 441/981/246
f 447/988/247 448/987/247 446/986/247 445/985/247
f 446/992/248 441/991/248 442/990/248 445/989/248
f 447/996/249 444/995/249 443/994/249 448/993/249
o cube
v -0.185937 -0.021438 -0.147000
v -0.185937 -0.021438 -0.190750
v -0.185937 -0.032375 -0.147000
v -0.185937 -0.032375 -0.190750
v -0.196875 -0.021438 -0.190750
v -0.196875 -0.021438 -0.147000
v -0.196875 -0.032375 -0.190750
v -0.196875 -0.032375 -0.147000
vt 0 0.828125
vt 0.0625 0.828125
vt 0.0625 0.8125
vt 0 0.8125
vt 0 0.828125
vt 0.0625 0.828125
vt 0.0625 0.8125
vt 0 0.8125
vt 0 1
vt 0.015625 1
vt 0.015625 0.9375
vt 0 0.9375
vt 0 1
vt 0.015625 1
vt 0.015625 0.9375
vt 0 0.9375
vn 1 0 0
vn -1 0 0
vn 0 1 0
vn 0 -1 0
usemtl m_bccd8665-9303-13f7-7aad-d500efd02dda
f 451/1000/250 452/999/250 450/998/250 449/997/250
f 455/1004/251 456/1003/251 454/1002/251 453/1001/251
f 454/1008/252 449/1007/252 450/1006/252 453/1005/252
f 455/1012/253 452/1011/253 451/1010/253 456/1009/253
o cube
v -0.196875 -0.032375 -0.147000
v -0.196875 -0.032375 -0.190750
v -0.196875 -0.043313 -0.147000
v -0.196875 -0.043313 -0.190750
v -0.207812 -0.032375 -0.190750
v -0.207812 -0.032375 -0.147000
v -0.207812 -0.043313 -0.190750
v -0.207812 -0.043313 -0.147000
vt 0 0.828125
vt 0.0625 0.828125
vt 0.0625 0.8125
vt 0 0.8125
vt 0 0.828125
vt 0.0625 0.828125
vt 0.0625 0.8125
vt 0 0.8125
vt 0 1
vt 0.015625 1
vt 0.015625 0.9375
vt 0 0.9375
vt 0 1
vt 0.015625 1
vt 0.015625 0.9375
vt 0 0.9375
vn 1 0 0
vn -1 0 0
vn 0 1 0
vn 0 -1 0
usemtl m_bccd8665-9303-13f7-7aad-d500efd02dda
f 459/1016/254 460/1015/254 458/1014/254 457/1013/254
f 463/1020/255 464/1019/255 462/1018/255 461/1017/255
f 462/1024/256 457/1023/256 458/1022/256 461/1021/256
f 463/1028/257 460/1027/257 459/1026/257 464/1025/257
o cube
v -0.207812 -0.043313 -0.147000
v -0.207812 -0.043313 -0.190750
v -0.207812 -0.054250 -0.147000
v -0.207812 -0.054250 -0.190750
v -0.218750 -0.043313 -0.190750
v -0.218750 -0.043313 -0.147000
v -0.218750 -0.054250 -0.190750
v -0.218750 -0.054250 -0.147000
vt 0 0.828125
vt 0.0625 0.828125
vt 0.0625 0.8125
vt 0 0.8125
vt 0 0.828125
vt 0.0625 0.828125
vt 0.0625 0.8125
vt 0 0.8125
vt 0 1
vt 0.015625 1
vt 0.015625 0.9375
vt 0 0.9375
vt 0 1
vt 0.015625 1
vt 0.015625 0.9375
vt 0 0.9375
vn 1 0 0
vn -1 0 0
vn 0 1 0
vn 0 -1 0
usemtl m_bccd8665-9303-13f7-7aad-d500efd02dda
f 467/1032/258 468/1031/258 466/1030/258 465/1029/258
f 471/1036/259 472/1035/259 470/1034/259 469/1033/259
f 470/1040/260 465/1039/260 466/1038/260 469/1037/260
f 471/1044/261 468/1043/261 467/1042/261 472/1041/261
o cube
v -0.218750 -0.054250 -0.147000
v -0.218750 -0.054250 -0.190750
v -0.218750 -0.065188 -0.147000
v -0.218750 -0.065188 -0.190750
v -0.229687 -0.054250 -0.190750
v -0.229687 -0.054250 -0.147000
v -0.229687 -0.065188 -0.190750
v -0.229687 -0.065188 -0.147000
vt 0 0.828125
vt 0.0625 0.828125
vt 0.0625 0.8125
vt 0 0.8125
vt 0 0.828125
vt 0.0625 0.828125
vt 0.0625 0.8125
vt 0 0.8125
vt 0 1
vt 0.015625 1
vt 0.015625 0.9375
vt 0 0.9375
vt 0 1
vt 0.015625 1
vt 0.015625 0.9375
vt 0 0.9375
vn 1 0 0
vn -1 0 0
vn 0 1 0
vn 0 -1 0
usemtl m_bccd8665-9303-13f7-7aad-d500efd02dda
f 475/1048/262 476/1047/262 474/1046/262 473/1045/262
f 479/1052/263 480/1051/263 478/1050/263 477/1049/263
f 478/1056/264 473/1055/264 474/1054/264 477/1053/264
f 479/1060/265 476/1059/265 475/1058/265 480/1057/265
o cube
v 0.032812 -0.327687 -0.147000
v 0.032812 -0.327687 -0.190750
v 0.032812 -0.338625 -0.147000
v 0.032812 -0.338625 -0.190750
v -0.032812 -0.327687 -0.190750
v -0.032812 -0.327687 -0.147000
v -0.032812 -0.338625 -0.190750
v -0.032812 -0.338625 -0.147000
vt 0 0.953125
vt 0.0625 0.953125
vt 0.0625 0.9375
vt 0 0.9375
vt 0 0.953125
vt 0.0625 0.953125
vt 0.0625 0.9375
vt 0 0.9375
vt 0 1
vt 0.09375 1
vt 0.09375 0.9375
vt 0 0.9375
vt 0 1
vt 0.09375 1
vt 0.09375 0.9375
vt 0 0.9375
vn 1 0 0
vn -1 0 0
vn 0 1 0
vn 0 -1 0
usemtl m_bccd8665-9303-13f7-7aad-d500efd02dda
f 483/1064/266 484/1063/266 482/1062/266 481/1061/266
f 487/1068/267 488/1067/267 486/1066/267 485/1065/267
f 486/1072/268 481/1071/268 482/1070/268 485/1069/268
f 487/1076/269 484/1075/269 483/1074/269 488/1073/269
o cube
v -0.120312 -0.010500 -0.147000
v -0.120312 -0.010500 -0.190750
v -0.120312 -0.021438 -0.147000
v -0.120312 -0.021438 -0.190750
v -0.185937 -0.010500 -0.190750
v -0.185937 -0.010500 -0.147000
v -0.185937 -0.021438 -0.190750
v -0.185937 -0.021438 -0.147000
vt 0 0.953125
vt 0.0625 0.953125
vt 0.0625 0.9375
vt 0 0.9375
vt 0 0.953125
vt 0.0625 0.953125
vt 0.0625 0.9375
vt 0 0.9375
vt 0 1
vt 0.09375 1
vt 0.09375 0.9375
vt 0 0.9375
vt 0 1
vt 0.09375 1
vt 0.09375 0.9375
vt 0 0.9375
vn 1 0 0
vn -1 0 0
vn 0 1 0
vn 0 -1 0
usemtl m_bccd8665-9303-13f7-7aad-d500efd02dda
f 491/1080/270 492/1079/270 490/1078/270 489/1077/270
f 495/1084/271 496/1083/271 494/1082/271 493/1081/271
f 494/1088/272 489/1087/272 490/1086/272 493/1085/272
f 495/1092/273 492/1091/273 491/1090/273 496/1089/273
o cube
v -0.229687 -0.065188 -0.147000
v -0.229687 -0.065188 -0.190750
v -0.229687 -0.130812 -0.147000
v -0.229687 -0.130812 -0.190750
v -0.240625 -0.065188 -0.190750
v -0.240625 -0.065188 -0.147000
v -0.240625 -0.130812 -0.190750
v -0.240625 -0.130812 -0.147000
vt 0 1
vt 0.0625 1
vt 0.0625 0.90625
vt 0 0.90625
vt 0 1
vt 0.0625 1
vt 0.0625 0.90625
vt 0 0.90625
vt 0 1
vt 0.015625 1
vt 0.015625 0.9375
vt 0 0.9375
vt 0 1
vt 0.015625 1
vt 0.015625 0.9375
vt 0 0.9375
vn 1 0 0
vn -1 0 0
vn 0 1 0
vn 0 -1 0
usemtl m_bccd8665-9303-13f7-7aad-d500efd02dda
f 499/1096/274 500/1095/274 498/1094/274 497/1093/274
f 503/1100/275 504/1099/275 502/1098/275 501/1097/275
f 502/1104/276 497/1103/276 498/1102/276 501/1101/276
f 503/1108/277 500/1107/277 499/1106/277 504/1105/277
o cube
v 0.087500 -0.218312 -0.147000
v 0.087500 -0.218312 -0.190750
v 0.087500 -0.283938 -0.147000
v 0.087500 -0.283938 -0.190750
v 0.076562 -0.218312 -0.190750
v 0.076562 -0.218312 -0.147000
v 0.076562 -0.283938 -0.190750
v 0.076562 -0.283938 -0.147000
vt 0 1
vt 0.0625 1
vt 0.0625 0.90625
vt 0 0.90625
vt 0 1
vt 0.0625 1
vt 0.0625 0.90625
vt 0 0.90625
vt 0 1
vt 0.015625 1
vt 0.015625 0.9375
vt 0 0.9375
vt 0 1
vt 0.015625 1
vt 0.015625 0.9375
vt 0 0.9375
vn 1 0 0
vn -1 0 0
vn 0 1 0
vn 0 -1 0
usemtl m_bccd8665-9303-13f7-7aad-d500efd02dda
f 507/1112/278 508/1111/278 506/1110/278 505/1109/278
f 511/1116/279 512/1115/279 510/1114/279 509/1113/279
f 510/1120/280 505/1119/280 506/1118/280 509/1117/280
f 511/1124/281 508/1123/281 507/1122/281 512/1121/281
o route_1
v 0.175000 0.361375 -0.147000
v 0.175000 0.361375 -0.168875
v 0.175000 -0.338625 -0.147000
v 0.175000 -0.338625 -0.168875
v -0.525000 0.361375 -0.168875
v -0.525000 0.361375 -0.147000
v -0.525000 -0.338625 -0.168875
v -0.525000 -0.338625 -0.147000
vt 0 1
vt 1 1
vt 1 0
vt 0 0
vn 0 0 1
usemtl m_7f7b7d09-6021-31e0-976d-0ff276f7c497
o cube
v 0.076562 -0.207375 -0.147000
v 0.076562 -0.207375 -0.190750
v 0.076562 -0.218312 -0.147000
v 0.076562 -0.218312 -0.190750
v 0.065625 -0.207375 -0.190750
v 0.065625 -0.207375 -0.147000
v 0.065625 -0.218312 -0.190750
v 0.065625 -0.218312 -0.147000
vt 0 0.828125
vt 0.0625 0.828125
vt 0.0625 0.8125
vt 0 0.8125
vt 0 0.828125
vt 0.0625 0.828125
vt 0.0625 0.8125
vt 0 0.8125
vt 0 1
vt 0.015625 1
vt 0.015625 0.9375
vt 0 0.9375
vt 0 1
vt 0.015625 1
vt 0.015625 0.9375
vt 0 0.9375
vn 1 0 0
vn -1 0 0
vn 0 1 0
vn 0 -1 0
usemtl m_bccd8665-9303-13f7-7aad-d500efd02dda
f 523/1132/283 524/1131/283 522/1130/283 521/1129/283
f 527/1136/284 528/1135/284 526/1134/284 525/1133/284
f 526/1140/285 521/1139/285 522/1138/285 525/1137/285
f 527/1144/286 524/1143/286 523/1142/286 528/1141/286
o cube
v -0.087500 -0.174563 -0.190750
v -0.087500 -0.174563 -0.212625
v -0.087500 -0.185500 -0.190750
v -0.087500 -0.185500 -0.212625
v -0.098437 -0.174563 -0.212625
v -0.098437 -0.174563 -0.190750
v -0.098437 -0.185500 -0.212625
v -0.098437 -0.185500 -0.190750
vt 0 1
vt 0.015625 1
vt 0.015625 0.984375
vt 0 0.984375
vt 0.03125 0.828125
vt 0.0625 0.828125
vt 0.0625 0.8125
vt 0.03125 0.8125
vt 0 1
vt 0.015625 1
vt 0.015625 0.984375
vt 0 0.984375
vt 0 0.828125
vt 0.03125 0.828125
vt 0.03125 0.8125
vt 0 0.8125
vt 0 1
vt 0.015625 1
vt 0.015625 0.96875
vt 0 0.96875
vt 0 0.96875
vt 0.015625 0.96875
vt 0.015625 0.9375
vt 0 0.9375
vn 0 0 -1
vn 1 0 0
vn 0 0 1
vn -1 0 0
vn 0 1 0
vn 0 -1 0
usemtl m_ba4ec1ab-56cf-e947-093a-c95eefdbcb3b
f 532/1148/287 535/1147/287 533/1146/287 530/1145/287
f 531/1152/288 532/1151/288 530/1150/288 529/1149/288
f 536/1156/289 531/1155/289 529/1154/289 534/1153/289
f 535/1160/290 536/1159/290 534/1158/290 533/1157/290
f 534/1164/291 529/1163/291 530/1162/291 533/1161/291
f 535/1168/292 532/1167/292 531/1166/292 536/1165/292
o cube
v 0.000000 -0.218312 -0.190750
v 0.000000 -0.218312 -0.212625
v 0.000000 -0.229250 -0.190750
v 0.000000 -0.229250 -0.212625
v -0.010937 -0.218312 -0.212625
v -0.010937 -0.218312 -0.190750
v -0.010937 -0.229250 -0.212625
v -0.010937 -0.229250 -0.190750
vt 0 1
vt 0.015625 1
vt 0.015625 0.984375
vt 0 0.984375
vt 0.03125 0.828125
vt 0.0625 0.828125
vt 0.0625 0.8125
vt 0.03125 0.8125
vt 0 1
vt 0.015625 1
vt 0.015625 0.984375
vt 0 0.984375
vt 0 0.828125
vt 0.03125 0.828125
vt 0.03125 0.8125
vt 0 0.8125
vt 0 1
vt 0.015625 1
vt 0.015625 0.96875
vt 0 0.96875
vt 0 0.96875
vt 0.015625 0.96875
vt 0.015625 0.9375
vt 0 0.9375
vn 0 0 -1
vn 1 0 0
vn 0 0 1
vn -1 0 0
vn 0 1 0
vn 0 -1 0
usemtl m_ba4ec1ab-56cf-e947-093a-c95eefdbcb3b
f 540/1172/293 543/1171/293 541/1170/293 538/1169/293
f 539/1176/294 540/1175/294 538/1174/294 537/1173/294
f 544/1180/295 539/1179/295 537/1178/295 542/1177/295
f 543/1184/296 544/1183/296 542/1182/296 541/1181/296
f 542/1188/297 537/1187/297 538/1186/297 541/1185/297
f 543/1192/298 540/1191/298 539/1190/298 544/1189/298
o cube
v -0.010937 -0.251125 -0.190750
v -0.010937 -0.251125 -0.212625
v -0.010937 -0.262062 -0.190750
v -0.010937 -0.262062 -0.212625
v -0.021875 -0.251125 -0.212625
v -0.021875 -0.251125 -0.190750
v -0.021875 -0.262062 -0.212625
v -0.021875 -0.262062 -0.190750
vt 0 1
vt 0.015625 1
vt 0.015625 0.984375
vt 0 0.984375
vt 0.03125 0.828125
vt 0.0625 0.828125
vt 0.0625 0.8125
vt 0.03125 0.8125
vt 0 1
vt 0.015625 1
vt 0.015625 0.984375
vt 0 0.984375
vt 0 0.828125
vt 0.03125 0.828125
vt 0.03125 0.8125
vt 0 0.8125
vt 0 1
vt 0.015625 1
vt 0.015625 0.96875
vt 0 0.96875
vt 0 0.96875
vt 0.015625 0.96875
vt 0.015625 0.9375
vt 0 0.9375
vn 0 0 -1
vn 1 0 0
vn 0 0 1
vn -1 0 0
vn 0 1 0
vn 0 -1 0
usemtl m_ba4ec1ab-56cf-e947-093a-c95eefdbcb3b
f 548/1196/299 551/1195/299 549/1194/299 546/1193/299
f 547/1200/300 548/1199/300 546/1198/300 545/1197/300
f 552/1204/301 547/1203/301 545/1202/301 550/1201/301
f 551/1208/302 552/1207/302 550/1206/302 549/1205/302
f 550/1212/303 545/1211/303 546/1210/303 549/1209/303
f 551/1216/304 548/1215/304 547/1214/304 552/1213/304
o cube
v -0.021875 -0.240187 -0.190750
v -0.021875 -0.240187 -0.212625
v -0.021875 -0.251125 -0.190750
v -0.021875 -0.251125 -0.212625
v -0.032812 -0.240187 -0.212625
v -0.032812 -0.240187 -0.190750
v -0.032812 -0.251125 -0.212625
v -0.032812 -0.251125 -0.190750
vt 0 1
vt 0.015625 1
vt 0.015625 0.984375
vt 0 0.984375
vt 0.03125 0.828125
vt 0.0625 0.828125
vt 0.0625 0.8125
vt 0.03125 0.8125
vt 0 1
vt 0.015625 1
vt 0.015625 0.984375
vt 0 0.984375
vt 0 0.828125
vt 0.03125 0.828125
vt 0.03125 0.8125
vt 0 0.8125
vt 0 1
vt 0.015625 1
vt 0.015625 0.96875
vt 0 0.96875
vt 0 0.96875
vt 0.015625 0.96875
vt 0.015625 0.9375
vt 0 0.9375
vn 0 0 -1
vn 1 0 0
vn 0 0 1
vn -1 0 0
vn 0 1 0
vn 0 -1 0
usemtl m_ba4ec1ab-56cf-e947-093a-c95eefdbcb3b
f 556/1220/305 559/1219/305 557/1218/305 554/1217/305
f 555/1224/306 556/1223/306 554/1222/306 553/1221/306
f 560/1228/307 555/1227/307 553/1226/307 558/1225/307
f 559/1232/308 560/1231/308 558/1230/308 557/1229/308
f 558/1236/309 553/1235/309 554/1234/309 557/1233/309
f 559/1240/310 556/1239/310 555/1238/310 560/1237/310
o cube
v -0.032812 -0.229250 -0.190750
v -0.032812 -0.229250 -0.212625
v -0.032812 -0.240187 -0.190750
v -0.032812 -0.240187 -0.212625
v -0.043750 -0.229250 -0.212625
v -0.043750 -0.229250 -0.190750
v -0.043750 -0.240187 -0.212625
v -0.043750 -0.240187 -0.190750
vt 0 1
vt 0.015625 1
vt 0.015625 0.984375
vt 0 0.984375
vt 0.03125 0.828125
vt 0.0625 0.828125
vt 0.0625 0.8125
vt 0.03125 0.8125
vt 0 1
vt 0.015625 1
vt 0.015625 0.984375
vt 0 0.984375
vt 0 0.828125
vt 0.03125 0.828125
vt 0.03125 0.8125
vt 0 0.8125
vt 0 1
vt 0.015625 1
vt 0.015625 0.96875
vt 0 0.96875
vt 0 0.96875
vt 0.015625 0.96875
vt 0.015625 0.9375
vt 0 0.9375
vn 0 0 -1
vn 1 0 0
vn 0 0 1
vn -1 0 0
vn 0 1 0
vn 0 -1 0
usemtl m_ba4ec1ab-56cf-e947-093a-c95eefdbcb3b
f 564/1244/311 567/1243/311 565/1242/311 562/1241/311
f 563/1248/312 564/1247/312 562/1246/312 561/1245/312
f 568/1252/313 563/1251/313 561/1250/313 566/1249/313
f 567/1256/314 568/1255/314 566/1254/314 565/1253/314
f 566/1260/315 561/1259/315 562/1258/315 565/1257/315
f 567/1264/316 564/1263/316 563/1262/316 568/1261/316
o cube
v -0.043750 -0.218312 -0.190750
v -0.043750 -0.218312 -0.212625
v -0.043750 -0.229250 -0.190750
v -0.043750 -0.229250 -0.212625
v -0.054688 -0.218312 -0.212625
v -0.054688 -0.218312 -0.190750
v -0.054688 -0.229250 -0.212625
v -0.054688 -0.229250 -0.190750
vt 0 1
vt 0.015625 1
vt 0.015625 0.984375
vt 0 0.984375
vt 0.03125 0.828125
vt 0.0625 0.828125
vt 0.0625 0.8125
vt 0.03125 0.8125
vt 0 1
vt 0.015625 1
vt 0.015625 0.984375
vt 0 0.984375
vt 0 0.828125
vt 0.03125 0.828125
vt 0.03125 0.8125
vt 0 0.8125
vt 0 1
vt 0.015625 1
vt 0.015625 0.96875
vt 0 0.96875
vt 0 0.96875
vt 0.015625 0.96875
vt 0.015625 0.9375
vt 0 0.9375
vn 0 0 -1
vn 1 0 0
vn 0 0 1
vn -1 0 0
vn 0 1 0
vn 0 -1 0
usemtl m_ba4ec1ab-56cf-e947-093a-c95eefdbcb3b
f 572/1268/317 575/1267/317 573/1266/317 570/1265/317
f 571/1272/318 572/1271/318 570/1270/318 569/1269/318
f 576/1276/319 571/1275/319 569/1274/319 574/1273/319
f 575/1280/320 576/1279/320 574/1278/320 573/1277/320
f 574/1284/321 569/1283/321 570/1282/321 573/1281/321
f 575/1288/322 572/1287/322 571/1286/322 576/1285/322
o cube
v -0.054688 -0.207375 -0.190750
v -0.054688 -0.207375 -0.212625
v -0.054688 -0.218312 -0.190750
v -0.054688 -0.218312 -0.212625
v -0.065625 -0.207375 -0.212625
v -0.065625 -0.207375 -0.190750
v -0.065625 -0.218312 -0.212625
v -0.065625 -0.218312 -0.190750
vt 0 1
vt 0.015625 1
vt 0.015625 0.984375
vt 0 0.984375
vt 0.03125 0.828125
vt 0.0625 0.828125
vt 0.0625 0.8125
vt 0.03125 0.8125
vt 0 1
vt 0.015625 1
vt 0.015625 0.984375
vt 0 0.984375
vt 0 0.828125
vt 0.03125 0.828125
vt 0.03125 0.8125
vt 0 0.8125
vt 0 1
vt 0.015625 1
vt 0.015625 0.96875
vt 0 0.96875
vt 0 0.96875
vt 0.015625 0.96875
vt 0.015625 0.9375
vt 0 0.9375
vn 0 0 -1
vn 1 0 0
vn 0 0 1
vn -1 0 0
vn 0 1 0
vn 0 -1 0
usemtl m_ba4ec1ab-56cf-e947-093a-c95eefdbcb3b
f 580/1292/323 583/1291/323 581/1290/323 578/1289/323
f 579/1296/324 580/1295/324 578/1294/324 577/1293/324
f 584/1300/325 579/1299/325 577/1298/325 582/1297/325
f 583/1304/326 584/1303/326 582/1302/326 581/1301/326
f 582/1308/327 577/1307/327 578/1306/327 581/1305/327
f 583/1312/328 580/1311/328 579/1310/328 584/1309/328
o cube
v -0.065625 -0.196437 -0.190750
v -0.065625 -0.196437 -0.212625
v -0.065625 -0.207375 -0.190750
v -0.065625 -0.207375 -0.212625
v -0.076562 -0.196437 -0.212625
v -0.076562 -0.196437 -0.190750
v -0.076562 -0.207375 -0.212625
v -0.076562 -0.207375 -0.190750
vt 0 1
vt 0.015625 1
vt 0.015625 0.984375
vt 0 0.984375
vt 0.03125 0.828125
vt 0.0625 0.828125
vt 0.0625 0.8125
vt 0.03125 0.8125
vt 0 1
vt 0.015625 1
vt 0.015625 0.984375
vt 0 0.984375
vt 0 0.828125
vt 0.03125 0.828125
vt 0.03125 0.8125
vt 0 0.8125
vt 0 1
vt 0.015625 1
vt 0.015625 0.96875
vt 0 0.96875
vt 0 0.96875
vt 0.015625 0.96875
vt 0.015625 0.9375
vt 0 0.9375
vn 0 0 -1
vn 1 0 0
vn 0 0 1
vn -1 0 0
vn 0 1 0
vn 0 -1 0
usemtl m_ba4ec1ab-56cf-e947-093a-c95eefdbcb3b
f 588/1316/329 591/1315/329 589/1314/329 586/1313/329
f 587/1320/330 588/1319/330 586/1318/330 585/1317/330
f 592/1324/331 587/1323/331 585/1322/331 590/1321/331
f 591/1328/332 592/1327/332 590/1326/332 589/1325/332
f 590/1332/333 585/1331/333 586/1330/333 589/1329/333
f 591/1336/334 588/1335/334 587/1334/334 592/1333/334
o cube
v -0.076562 -0.185500 -0.190750
v -0.076562 -0.185500 -0.212625
v -0.076562 -0.196437 -0.190750
v -0.076562 -0.196437 -0.212625
v -0.087500 -0.185500 -0.212625
v -0.087500 -0.185500 -0.190750
v -0.087500 -0.196437 -0.212625
v -0.087500 -0.196437 -0.190750
vt 0 1
vt 0.015625 1
vt 0.015625 0.984375
vt 0 0.984375
vt 0.03125 0.828125
vt 0.0625 0.828125
vt 0.0625 0.8125
vt 0.03125 0.8125
vt 0 1
vt 0.015625 1
vt 0.015625 0.984375
vt 0 0.984375
vt 0 0.828125
vt 0.03125 0.828125
vt 0.03125 0.8125
vt 0 0.8125
vt 0 1
vt 0.015625 1
vt 0.015625 0.96875
vt 0 0.96875
vt 0 0.96875
vt 0.015625 0.96875
vt 0.015625 0.9375
vt 0 0.9375
vn 0 0 -1
vn 1 0 0
vn 0 0 1
vn -1 0 0
vn 0 1 0
vn 0 -1 0
usemtl m_ba4ec1ab-56cf-e947-093a-c95eefdbcb3b
f 596/1340/335 599/1339/335 597/1338/335 594/1337/335
f 595/1344/336 596/1343/336 594/1342/336 593/1341/336
f 600/1348/337 595/1347/337 593/1346/337 598/1345/337
f 599/1352/338 600/1351/338 598/1350/338 597/1349/338
f 598/1356/339 593/1355/339 594/1354/339 597/1353/339
f 599/1360/340 596/1359/340 595/1358/340 600/1357/340
o cube
v 0.021875 -0.240187 -0.190750
v 0.021875 -0.240187 -0.212625
v 0.021875 -0.360500 -0.190750
v 0.021875 -0.360500 -0.212625
v -0.021875 -0.240187 -0.212625
v -0.021875 -0.240187 -0.190750
v -0.021875 -0.360500 -0.212625
v -0.021875 -0.360500 -0.190750
vt 0 0.984375
vt 0.0625 0.984375
vt 0.0625 0.8125
vt 0 0.8125
vt 0.03125 0.984375
vt 0.0625 0.984375
vt 0.0625 0.8125
vt 0.03125 0.8125
vt 0 0.984375
vt 0.0625 0.984375
vt 0.0625 0.8125
vt 0 0.8125
vt 0 0.984375
vt 0.03125 0.984375
vt 0.03125 0.8125
vt 0 0.8125
vt 0 1
vt 0.0625 1
vt 0.0625 0.96875
vt 0 0.96875
vt 0 0.96875
vt 0.0625 0.96875
vt 0.0625 0.9375
vt 0 0.9375
vn 0 0 -1
vn 1 0 0
vn 0 0 1
vn -1 0 0
vn 0 1 0
vn 0 -1 0
usemtl m_ba4ec1ab-56cf-e947-093a-c95eefdbcb3b
f 604/1364/341 607/1363/341 605/1362/341 602/1361/341
f 603/1368/342 604/1367/342 602/1366/342 601/1365/342
f 608/1372/343 603/1371/343 601/1370/343 606/1369/343
f 607/1376/344 608/1375/344 606/1374/344 605/1373/344
f 606/1380/345 601/1379/345 602/1378/345 605/1377/345
f 607/1384/346 604/1383/346 603/1382/346 608/1381/346
o cube
v 0.010937 -0.229250 -0.190750
v 0.010937 -0.229250 -0.212625
v 0.010937 -0.240187 -0.190750
v 0.010937 -0.240187 -0.212625
v 0.000000 -0.229250 -0.212625
v 0.000000 -0.229250 -0.190750
v 0.000000 -0.240187 -0.212625
v 0.000000 -0.240187 -0.190750
vt 0 1
vt 0.015625 1
vt 0.015625 0.984375
vt 0 0.984375
vt 0.03125 0.828125
vt 0.0625 0.828125
vt 0.0625 0.8125
vt 0.03125 0.8125
vt 0 1
vt 0.015625 1
vt 0.015625 0.984375
vt 0 0.984375
vt 0 0.828125
vt 0.03125 0.828125
vt 0.03125 0.8125
vt 0 0.8125
vt 0 1
vt 0.015625 1
vt 0.015625 0.96875
vt 0 0.96875
vt 0 0.96875
vt 0.015625 0.96875
vt 0.015625 0.9375
vt 0 0.9375
vn 0 0 -1
vn 1 0 0
vn 0 0 1
vn -1 0 0
vn 0 1 0
vn 0 -1 0
usemtl m_ba4ec1ab-56cf-e947-093a-c95eefdbcb3b
f 612/1388/347 615/1387/347 613/1386/347 610/1385/347
f 611/1392/348 612/1391/348 610/1390/348 609/1389/348
f 616/1396/349 611/1395/349 609/1394/349 614/1393/349
f 615/1400/350 616/1399/350 614/1398/350 613/1397/350
f 614/1404/351 609/1403/351 610/1402/351 613/1401/351
f 615/1408/352 612/1407/352 611/1406/352 616/1405/352
o cube
v 0.021875 -0.240187 -0.190750
v 0.021875 -0.240187 -0.212625
v 0.021875 -0.251125 -0.190750
v 0.021875 -0.251125 -0.212625
v 0.010937 -0.240187 -0.212625
v 0.010937 -0.240187 -0.190750
v 0.010937 -0.251125 -0.212625
v 0.010937 -0.251125 -0.190750
vt 0 1
vt 0.015625 1
vt 0.015625 0.984375
vt 0 0.984375
vt 0.03125 0.828125
vt 0.0625 0.828125
vt 0.0625 0.8125
vt 0.03125 0.8125
vt 0 1
vt 0.015625 1
vt 0.015625 0.984375
vt 0 0.984375
vt 0 0.828125
vt 0.03125 0.828125
vt 0.03125 0.8125
vt 0 0.8125
vt 0 1
vt 0.015625 1
vt 0.015625 0.96875
vt 0 0.96875
vt 0 0.96875
vt 0.015625 0.96875
vt 0.015625 0.9375
vt 0 0.9375
vn 0 0 -1
vn 1 0 0
vn 0 0 1
vn -1 0 0
vn 0 1 0
vn 0 -1 0
usemtl m_ba4ec1ab-56cf-e947-093a-c95eefdbcb3b
f 620/1412/353 623/1411/353 621/1410/353 618/1409/353
f 619/1416/354 620/1415/354 618/1414/354 617/1413/354
f 624/1420/355 619/1419/355 617/1418/355 622/1417/355
f 623/1424/356 624/1423/356 622/1422/356 621/1421/356
f 622/1428/357 617/1427/357 618/1426/357 621/1425/357
f 623/1432/358 620/1431/358 619/1430/358 624/1429/358
o cube
v -0.010937 -0.207375 -0.190750
v -0.010937 -0.207375 -0.212625
v -0.010937 -0.218312 -0.190750
v -0.010937 -0.218312 -0.212625
v -0.021875 -0.207375 -0.212625
v -0.021875 -0.207375 -0.190750
v -0.021875 -0.218312 -0.212625
v -0.021875 -0.218312 -0.190750
vt 0 1
vt 0.015625 1
vt 0.015625 0.984375
vt 0 0.984375
vt 0.03125 0.828125
vt 0.0625 0.828125
vt 0.0625 0.8125
vt 0.03125 0.8125
vt 0 1
vt 0.015625 1
vt 0.015625 0.984375
vt 0 0.984375
vt 0 0.828125
vt 0.03125 0.828125
vt 0.03125 0.8125
vt 0 0.8125
vt 0 1
vt 0.015625 1
vt 0.015625 0.96875
vt 0 0.96875
vt 0 0.96875
vt 0.015625 0.96875
vt 0.015625 0.9375
vt 0 0.9375
vn 0 0 -1
vn 1 0 0
vn 0 0 1
vn -1 0 0
vn 0 1 0
vn 0 -1 0
usemtl m_ba4ec1ab-56cf-e947-093a-c95eefdbcb3b
f 628/1436/359 631/1435/359 629/1434/359 626/1433/359
f 627/1440/360 628/1439/360 626/1438/360 625/1437/360
f 632/1444/361 627/1443/361 625/1442/361 630/1441/361
f 631/1448/362 632/1447/362 630/1446/362 629/1445/362
f 630/1452/363 625/1451/363 626/1450/363 629/1449/363
f 631/1456/364 628/1455/364 627/1454/364 632/1453/364
o cube
v -0.021875 -0.196437 -0.190750
v -0.021875 -0.196437 -0.212625
v -0.021875 -0.207375 -0.190750
v -0.021875 -0.207375 -0.212625
v -0.032812 -0.196437 -0.212625
v -0.032812 -0.196437 -0.190750
v -0.032812 -0.207375 -0.212625
v -0.032812 -0.207375 -0.190750
vt 0 1
vt 0.015625 1
vt 0.015625 0.984375
vt 0 0.984375
vt 0.03125 0.828125
vt 0.0625 0.828125
vt 0.0625 0.8125
vt 0.03125 0.8125
vt 0 1
vt 0.015625 1
vt 0.015625 0.984375
vt 0 0.984375
vt 0 0.828125
vt 0.03125 0.828125
vt 0.03125 0.8125
vt 0 0.8125
vt 0 1
vt 0.015625 1
vt 0.015625 0.96875
vt 0 0.96875
vt 0 0.96875
vt 0.015625 0.96875
vt 0.015625 0.9375
vt 0 0.9375
vn 0 0 -1
vn 1 0 0
vn 0 0 1
vn -1 0 0
vn 0 1 0
vn 0 -1 0
usemtl m_ba4ec1ab-56cf-e947-093a-c95eefdbcb3b
f 636/1460/365 639/1459/365 637/1458/365 634/1457/365
f 635/1464/366 636/1463/366 634/1462/366 633/1461/366
f 640/1468/367 635/1467/367 633/1466/367 638/1465/367
f 639/1472/368 640/1471/368 638/1470/368 637/1469/368
f 638/1476/369 633/1475/369 634/1474/369 637/1473/369
f 639/1480/370 636/1479/370 635/1478/370 640/1477/370
o cube
v -0.032812 -0.185500 -0.190750
v -0.032812 -0.185500 -0.212625
v -0.032812 -0.196437 -0.190750
v -0.032812 -0.196437 -0.212625
v -0.043750 -0.185500 -0.212625
v -0.043750 -0.185500 -0.190750
v -0.043750 -0.196437 -0.212625
v -0.043750 -0.196437 -0.190750
vt 0 1
vt 0.015625 1
vt 0.015625 0.984375
vt 0 0.984375
vt 0.03125 0.828125
vt 0.0625 0.828125
vt 0.0625 0.8125
vt 0.03125 0.8125
vt 0 1
vt 0.015625 1
vt 0.015625 0.984375
vt 0 0.984375
vt 0 0.828125
vt 0.03125 0.828125
vt 0.03125 0.8125
vt 0 0.8125
vt 0 1
vt 0.015625 1
vt 0.015625 0.96875
vt 0 0.96875
vt 0 0.96875
vt 0.015625 0.96875
vt 0.015625 0.9375
vt 0 0.9375
vn 0 0 -1
vn 1 0 0
vn 0 0 1
vn -1 0 0
vn 0 1 0
vn 0 -1 0
usemtl m_ba4ec1ab-56cf-e947-093a-c95eefdbcb3b
f 644/1484/371 647/1483/371 645/1482/371 642/1481/371
f 643/1488/372 644/1487/372 642/1486/372 641/1485/372
f 648/1492/373 643/1491/373 641/1490/373 646/1489/373
f 647/1496/374 648/1495/374 646/1494/374 645/1493/374
f 646/1500/375 641/1499/375 642/1498/375 645/1497/375
f 647/1504/376 644/1503/376 643/1502/376 648/1501/376
o cube
v -0.043750 -0.174563 -0.190750
v -0.043750 -0.174563 -0.212625
v -0.043750 -0.185500 -0.190750
v -0.043750 -0.185500 -0.212625
v -0.054688 -0.174563 -0.212625
v -0.054688 -0.174563 -0.190750
v -0.054688 -0.185500 -0.212625
v -0.054688 -0.185500 -0.190750
vt 0 1
vt 0.015625 1
vt 0.015625 0.984375
vt 0 0.984375
vt 0.03125 0.828125
vt 0.0625 0.828125
vt 0.0625 0.8125
vt 0.03125 0.8125
vt 0 1
vt 0.015625 1
vt 0.015625 0.984375
vt 0 0.984375
vt 0 0.828125
vt 0.03125 0.828125
vt 0.03125 0.8125
vt 0 0.8125
vt 0 1
vt 0.015625 1
vt 0.015625 0.96875
vt 0 0.96875
vt 0 0.96875
vt 0.015625 0.96875
vt 0.015625 0.9375
vt 0 0.9375
vn 0 0 -1
vn 1 0 0
vn 0 0 1
vn -1 0 0
vn 0 1 0
vn 0 -1 0
usemtl m_ba4ec1ab-56cf-e947-093a-c95eefdbcb3b
f 652/1508/377 655/1507/377 653/1506/377 650/1505/377
f 651/1512/378 652/1511/378 650/1510/378 649/1509/378
f 656/1516/379 651/1515/379 649/1514/379 654/1513/379
f 655/1520/380 656/1519/380 654/1518/380 653/1517/380
f 654/1524/381 649/1523/381 650/1522/381 653/1521/381
f 655/1528/382 652/1527/382 651/1526/382 656/1525/382
o cube
v -0.054688 -0.163625 -0.190750
v -0.054688 -0.163625 -0.212625
v -0.054688 -0.174563 -0.190750
v -0.054688 -0.174563 -0.212625
v -0.065625 -0.163625 -0.212625
v -0.065625 -0.163625 -0.190750
v -0.065625 -0.174563 -0.212625
v -0.065625 -0.174563 -0.190750
vt 0 1
vt 0.015625 1
vt 0.015625 0.984375
vt 0 0.984375
vt 0.03125 0.828125
vt 0.0625 0.828125
vt 0.0625 0.8125
vt 0.03125 0.8125
vt 0 1
vt 0.015625 1
vt 0.015625 0.984375
vt 0 0.984375
vt 0 0.828125
vt 0.03125 0.828125
vt 0.03125 0.8125
vt 0 0.8125
vt 0 1
vt 0.015625 1
vt 0.015625 0.96875
vt 0 0.96875
vt 0 0.96875
vt 0.015625 0.96875
vt 0.015625 0.9375
vt 0 0.9375
vn 0 0 -1
vn 1 0 0
vn 0 0 1
vn -1 0 0
vn 0 1 0
vn 0 -1 0
usemtl m_ba4ec1ab-56cf-e947-093a-c95eefdbcb3b
f 660/1532/383 663/1531/383 661/1530/383 658/1529/383
f 659/1536/384 660/1535/384 658/1534/384 657/1533/384
f 664/1540/385 659/1539/385 657/1538/385 662/1537/385
f 663/1544/386 664/1543/386 662/1542/386 661/1541/386
f 662/1548/387 657/1547/387 658/1546/387 661/1545/387
f 663/1552/388 660/1551/388 659/1550/388 664/1549/388
o cube
v -0.065625 -0.152688 -0.190750
v -0.065625 -0.152688 -0.212625
v -0.065625 -0.163625 -0.190750
v -0.065625 -0.163625 -0.212625
v -0.076562 -0.152688 -0.212625
v -0.076562 -0.152688 -0.190750
v -0.076562 -0.163625 -0.212625
v -0.076562 -0.163625 -0.190750
vt 0 1
vt 0.015625 1
vt 0.015625 0.984375
vt 0 0.984375
vt 0.03125 0.828125
vt 0.0625 0.828125
vt 0.0625 0.8125
vt 0.03125 0.8125
vt 0 1
vt 0.015625 1
vt 0.015625 0.984375
vt 0 0.984375
vt 0 0.828125
vt 0.03125 0.828125
vt 0.03125 0.8125
vt 0 0.8125
vt 0 1
vt 0.015625 1
vt 0.015625 0.96875
vt 0 0.96875
vt 0 0.96875
vt 0.015625 0.96875
vt 0.015625 0.9375
vt 0 0.9375
vn 0 0 -1
vn 1 0 0
vn 0 0 1
vn -1 0 0
vn 0 1 0
vn 0 -1 0
usemtl m_ba4ec1ab-56cf-e947-093a-c95eefdbcb3b
f 668/1556/389 671/1555/389 669/1554/389 666/1553/389
f 667/1560/390 668/1559/390 666/1558/390 665/1557/390
f 672/1564/391 667/1563/391 665/1562/391 670/1561/391
f 671/1568/392 672/1567/392 670/1566/392 669/1565/392
f 670/1572/393 665/1571/393 666/1570/393 669/1569/393
f 671/1576/394 668/1575/394 667/1574/394 672/1573/394
o cube
v -0.076562 -0.163625 -0.190750
v -0.076562 -0.163625 -0.212625
v -0.076562 -0.174563 -0.190750
v -0.076562 -0.174563 -0.212625
v -0.087500 -0.163625 -0.212625
v -0.087500 -0.163625 -0.190750
v -0.087500 -0.174563 -0.212625
v -0.087500 -0.174563 -0.190750
vt 0 1
vt 0.015625 1
vt 0.015625 0.984375
vt 0 0.984375
vt 0.03125 0.828125
vt 0.0625 0.828125
vt 0.0625 0.8125
vt 0.03125 0.8125
vt 0 1
vt 0.015625 1
vt 0.015625 0.984375
vt 0 0.984375
vt 0 0.828125
vt 0.03125 0.828125
vt 0.03125 0.8125
vt 0 0.8125
vt 0 1
vt 0.015625 1
vt 0.015625 0.96875
vt 0 0.96875
vt 0 0.96875
vt 0.015625 0.96875
vt 0.015625 0.9375
vt 0 0.9375
vn 0 0 -1
vn 1 0 0
vn 0 0 1
vn -1 0 0
vn 0 1 0
vn 0 -1 0
usemtl m_ba4ec1ab-56cf-e947-093a-c95eefdbcb3b
f 676/1580/395 679/1579/395 677/1578/395 674/1577/395
f 675/1584/396 676/1583/396 674/1582/396 673/1581/396
f 680/1588/397 675/1587/397 673/1586/397 678/1585/397
f 679/1592/398 680/1591/398 678/1590/398 677/1589/398
f 678/1596/399 673/1595/399 674/1594/399 677/1593/399
f 679/1600/400 676/1599/400 675/1598/400 680/1597/400
o cube
v -0.054688 -0.174563 -0.190750
v -0.054688 -0.174563 -0.212625
v -0.054688 -0.185500 -0.190750
v -0.054688 -0.185500 -0.212625
v -0.087500 -0.174563 -0.212625
v -0.087500 -0.174563 -0.190750
v -0.087500 -0.185500 -0.212625
v -0.087500 -0.185500 -0.190750
vt 0.015625 0.984375
vt 0.0625 0.984375
vt 0.0625 0.96875
vt 0.015625 0.96875
vt 0.03125 0.828125
vt 0.0625 0.828125
vt 0.0625 0.8125
vt 0.03125 0.8125
vt 0 0.984375
vt 0.046875 0.984375
vt 0.046875 0.96875
vt 0 0.96875
vt 0 0.828125
vt 0.03125 0.828125
vt 0.03125 0.8125
vt 0 0.8125
vt 0 1
vt 0.046875 1
vt 0.046875 0.96875
vt 0 0.96875
vt 0 0.96875
vt 0.046875 0.96875
vt 0.046875 0.9375
vt 0 0.9375
vn 0 0 -1
vn 1 0 0
vn 0 0 1
vn -1 0 0
vn 0 1 0
vn 0 -1 0
usemtl m_ba4ec1ab-56cf-e947-093a-c95eefdbcb3b
f 684/1604/401 687/1603/401 685/1602/401 682/1601/401
f 683/1608/402 684/1607/402 682/1606/402 681/1605/402
f 688/1612/403 683/1611/403 681/1610/403 686/1609/403
f 687/1616/404 688/1615/404 686/1614/404 685/1613/404
f 686/1620/405 681/1619/405 682/1618/405 685/1617/405
f 687/1624/406 684/1623/406 683/1622/406 688/1621/406
o cube
v -0.065625 -0.163625 -0.190750
v -0.065625 -0.163625 -0.212625
v -0.065625 -0.174563 -0.190750
v -0.065625 -0.174563 -0.212625
v -0.076562 -0.163625 -0.212625
v -0.076562 -0.163625 -0.190750
v -0.076562 -0.174563 -0.212625
v -0.076562 -0.174563 -0.190750
vt 0 1
vt 0.015625 1
vt 0.015625 0.984375
vt 0 0.984375
vt 0.03125 0.828125
vt 0.0625 0.828125
vt 0.0625 0.8125
vt 0.03125 0.8125
vt 0 1
vt 0.015625 1
vt 0.015625 0.984375
vt 0 0.984375
vt 0 0.828125
vt 0.03125 0.828125
vt 0.03125 0.8125
vt 0 0.8125
vt 0 1
vt 0.015625 1
vt 0.015625 0.96875
vt 0 0.96875
vt 0 0.96875
vt 0.015625 0.96875
vt 0.015625 0.9375
vt 0 0.9375
vn 0 0 -1
vn 1 0 0
vn 0 0 1
vn -1 0 0
vn 0 1 0
vn 0 -1 0
usemtl m_ba4ec1ab-56cf-e947-093a-c95eefdbcb3b
f 692/1628/407 695/1627/407 693/1626/407 690/1625/407
f 691/1632/408 692/1631/408 690/1630/408 689/1629/408
f 696/1636/409 691/1635/409 689/1634/409 694/1633/409
f 695/1640/410 696/1639/410 694/1638/410 693/1637/410
f 694/1644/411 689/1643/411 690/1642/411 693/1641/411
f 695/1648/412 692/1647/412 691/1646/412 696/1645/412
o cube
v -0.032812 -0.196437 -0.190750
v -0.032812 -0.196437 -0.212625
v -0.032812 -0.207375 -0.190750
v -0.032812 -0.207375 -0.212625
v -0.065625 -0.196437 -0.212625
v -0.065625 -0.196437 -0.190750
v -0.065625 -0.207375 -0.212625
v -0.065625 -0.207375 -0.190750
vt 0.015625 0.984375
vt 0.0625 0.984375
vt 0.0625 0.96875
vt 0.015625 0.96875
vt 0.03125 0.828125
vt 0.0625 0.828125
vt 0.0625 0.8125
vt 0.03125 0.8125
vt 0 0.984375
vt 0.046875 0.984375
vt 0.046875 0.96875
vt 0 0.96875
vt 0 0.828125
vt 0.03125 0.828125
vt 0.03125 0.8125
vt 0 0.8125
vt 0 1
vt 0.046875 1
vt 0.046875 0.96875
vt 0 0.96875
vt 0 0.96875
vt 0.046875 0.96875
vt 0.046875 0.9375
vt 0 0.9375
vn 0 0 -1
vn 1 0 0
vn 0 0 1
vn -1 0 0
vn 0 1 0
vn 0 -1 0
usemtl m_ba4ec1ab-56cf-e947-093a-c95eefdbcb3b
f 700/1652/413 703/1651/413 701/1650/413 698/1649/413
f 699/1656/414 700/1655/414 698/1654/414 697/1653/414
f 704/1660/415 699/1659/415 697/1658/415 702/1657/415
f 703/1664/416 704/1663/416 702/1662/416 701/1661/416
f 702/1668/417 697/1667/417 698/1666/417 701/1665/417
f 703/1672/418 700/1671/418 699/1670/418 704/1669/418
o cube
v -0.010937 -0.218312 -0.190750
v -0.010937 -0.218312 -0.212625
v -0.010937 -0.229250 -0.190750
v -0.010937 -0.229250 -0.212625
v -0.043750 -0.218312 -0.212625
v -0.043750 -0.218312 -0.190750
v -0.043750 -0.229250 -0.212625
v -0.043750 -0.229250 -0.190750
vt 0.015625 0.984375
vt 0.0625 0.984375
vt 0.0625 0.96875
vt 0.015625 0.96875
vt 0.03125 0.828125
vt 0.0625 0.828125
vt 0.0625 0.8125
vt 0.03125 0.8125
vt 0 0.984375
vt 0.046875 0.984375
vt 0.046875 0.96875
vt 0 0.96875
vt 0 0.828125
vt 0.03125 0.828125
vt 0.03125 0.8125
vt 0 0.8125
vt 0 1
vt 0.046875 1
vt 0.046875 0.96875
vt 0 0.96875
vt 0 0.96875
vt 0.046875 0.96875
vt 0.046875 0.9375
vt 0 0.9375
vn 0 0 -1
vn 1 0 0
vn 0 0 1
vn -1 0 0
vn 0 1 0
vn 0 -1 0
usemtl m_ba4ec1ab-56cf-e947-093a-c95eefdbcb3b
f 708/1676/419 711/1675/419 709/1674/419 706/1673/419
f 707/1680/420 708/1679/420 706/1678/420 705/1677/420
f 712/1684/421 707/1683/421 705/1682/421 710/1681/421
f 711/1688/422 712/1687/422 710/1686/422 709/1685/422
f 710/1692/423 705/1691/423 706/1690/423 709/1689/423
f 711/1696/424 708/1695/424 707/1694/424 712/1693/424
o cube
v -0.043750 -0.185500 -0.190750
v -0.043750 -0.185500 -0.212625
v -0.043750 -0.196437 -0.190750
v -0.043750 -0.196437 -0.212625
v -0.076562 -0.185500 -0.212625
v -0.076562 -0.185500 -0.190750
v -0.076562 -0.196437 -0.212625
v -0.076562 -0.196437 -0.190750
vt 0.015625 0.984375
vt 0.0625 0.984375
vt 0.0625 0.96875
vt 0.015625 0.96875
vt 0.03125 0.828125
vt 0.0625 0.828125
vt 0.0625 0.8125
vt 0.03125 0.8125
vt 0 0.984375
vt 0.046875 0.984375
vt 0.046875 0.96875
vt 0 0.96875
vt 0 0.828125
vt 0.03125 0.828125
vt 0.03125 0.8125
vt 0 0.8125
vt 0 1
vt 0.046875 1
vt 0.046875 0.96875
vt 0 0.96875
vt 0 0.96875
vt 0.046875 0.96875
vt 0.046875 0.9375
vt 0 0.9375
vn 0 0 -1
vn 1 0 0
vn 0 0 1
vn -1 0 0
vn 0 1 0
vn 0 -1 0
usemtl m_ba4ec1ab-56cf-e947-093a-c95eefdbcb3b
f 716/1700/425 719/1699/425 717/1698/425 714/1697/425
f 715/1704/426 716/1703/426 714/1702/426 713/1701/426
f 720/1708/427 715/1707/427 713/1706/427 718/1705/427
f 719/1712/428 720/1711/428 718/1710/428 717/1709/428
f 718/1716/429 713/1715/429 714/1714/429 717/1713/429
f 719/1720/430 716/1719/430 715/1718/430 720/1717/430
o cube
v -0.021875 -0.207375 -0.190750
v -0.021875 -0.207375 -0.212625
v -0.021875 -0.218312 -0.190750
v -0.021875 -0.218312 -0.212625
v -0.054688 -0.207375 -0.212625
v -0.054688 -0.207375 -0.190750
v -0.054688 -0.218312 -0.212625
v -0.054688 -0.218312 -0.190750
vt 0.015625 0.984375
vt 0.0625 0.984375
vt 0.0625 0.96875
vt 0.015625 0.96875
vt 0.03125 0.828125
vt 0.0625 0.828125
vt 0.0625 0.8125
vt 0.03125 0.8125
vt 0 0.984375
vt 0.046875 0.984375
vt 0.046875 0.96875
vt 0 0.96875
vt 0 0.828125
vt 0.03125 0.828125
vt 0.03125 0.8125
vt 0 0.8125
vt 0 1
vt 0.046875 1
vt 0.046875 0.96875
vt 0 0.96875
vt 0 0.96875
vt 0.046875 0.96875
vt 0.046875 0.9375
vt 0 0.9375
vn 0 0 -1
vn 1 0 0
vn 0 0 1
vn -1 0 0
vn 0 1 0
vn 0 -1 0
usemtl m_ba4ec1ab-56cf-e947-093a-c95eefdbcb3b
f 724/1724/431 727/1723/431 725/1722/431 722/1721/431
f 723/1728/432 724/1727/432 722/1726/432 721/1725/432
f 728/1732/433 723/1731/433 721/1730/433 726/1729/433
f 727/1736/434 728/1735/434 726/1734/434 725/1733/434
f 726/1740/435 721/1739/435 722/1738/435 725/1737/435
f 727/1744/436 724/1743/436 723/1742/436 728/1741/436
o cube
v 0.000000 -0.229250 -0.190750
v 0.000000 -0.229250 -0.212625
v 0.000000 -0.240187 -0.190750
v 0.000000 -0.240187 -0.212625
v -0.032812 -0.229250 -0.212625
v -0.032812 -0.229250 -0.190750
v -0.032812 -0.240187 -0.212625
v -0.032812 -0.240187 -0.190750
vt 0.015625 0.984375
vt 0.0625 0.984375
vt 0.0625 0.96875
vt 0.015625 0.96875
vt 0.03125 0.828125
vt 0.0625 0.828125
vt 0.0625 0.8125
vt 0.03125 0.8125
vt 0 0.984375
vt 0.046875 0.984375
vt 0.046875 0.96875
vt 0 0.96875
vt 0 0.828125
vt 0.03125 0.828125
vt 0.03125 0.8125
vt 0 0.8125
vt 0 1
vt 0.046875 1
vt 0.046875 0.96875
vt 0 0.96875
vt 0 0.96875
vt 0.046875 0.96875
vt 0.046875 0.9375
vt 0 0.9375
vn 0 0 -1
vn 1 0 0
vn 0 0 1
vn -1 0 0
vn 0 1 0
vn 0 -1 0
usemtl m_ba4ec1ab-56cf-e947-093a-c95eefdbcb3b
f 732/1748/437 735/1747/437 733/1746/437 730/1745/437
f 731/1752/438 732/1751/438 730/1750/438 729/1749/438
f 736/1756/439 731/1755/439 729/1754/439 734/1753/439
f 735/1760/440 736/1759/440 734/1758/440 733/1757/440
f 734/1764/441 729/1763/441 730/1762/441 733/1761/441
f 735/1768/442 732/1767/442 731/1766/442 736/1765/442
